<svg width="3300" height="2200" viewBox="0 0 3300 2200" fill="none" xmlns="http://www.w3.org/2000/svg">
<rect width="3300" height="2200" fill="#F5F5F5"/>
<g id="liquid_glass" clip-path="url(#clip0_0_1)">
<g id="Notes">
<path id="artboard" d="M3300 0H0V2200H3300V0Z" fill="white"/>
<path id="Vector" d="M263 292H3036" stroke="black" stroke-width="0.5"/>
<text id="Weight/Scale Variations" fill="black" xml:space="preserve" style="white-space: pre" font-family="Inter" font-size="13" font-weight="bold" letter-spacing="0em"><tspan x="263" y="321.727">Weight/Scale Variations</tspan></text>
<text id="Ultralight" fill="black" xml:space="preserve" style="white-space: pre" font-family="Inter" font-size="13" letter-spacing="0em"><tspan x="531.661" y="321.727">Ultralight</tspan></text>
<text id="Thin" fill="black" xml:space="preserve" style="white-space: pre" font-family="Inter" font-size="13" letter-spacing="0em"><tspan x="843.067" y="321.727">Thin</tspan></text>
<text id="Light" fill="black" xml:space="preserve" style="white-space: pre" font-family="Inter" font-size="13" letter-spacing="0em"><tspan x="1137.77" y="321.727">Light</tspan></text>
<text id="Regular" fill="black" xml:space="preserve" style="white-space: pre" font-family="Inter" font-size="13" letter-spacing="0em"><tspan x="1426.58" y="321.727">Regular</tspan></text>
<text id="Medium" fill="black" xml:space="preserve" style="white-space: pre" font-family="Inter" font-size="13" letter-spacing="0em"><tspan x="1721.99" y="321.727">Medium</tspan></text>
<text id="Semibold" fill="black" xml:space="preserve" style="white-space: pre" font-family="Inter" font-size="13" letter-spacing="0em"><tspan x="2014.65" y="321.727">Semibold</tspan></text>
<text id="Bold" fill="black" xml:space="preserve" style="white-space: pre" font-family="Inter" font-size="13" letter-spacing="0em"><tspan x="2326.29" y="321.727">Bold</tspan></text>
<text id="Heavy" fill="black" xml:space="preserve" style="white-space: pre" font-family="Inter" font-size="13" letter-spacing="0em"><tspan x="2617.32" y="321.727">Heavy</tspan></text>
<text id="Black" fill="black" xml:space="preserve" style="white-space: pre" font-family="Inter" font-size="13" letter-spacing="0em"><tspan x="2916.8" y="321.727">Black</tspan></text>
<path id="Vector_2" d="M263 1903H3036" stroke="black" stroke-width="0.5"/>
<g id="Group">
<path id="Vector_3" d="M272.248 1933.83C276.604 1933.83 280.139 1930.3 280.139 1925.95C280.139 1921.59 276.604 1918.07 272.248 1918.07C267.902 1918.07 264.367 1921.59 264.367 1925.95C264.367 1930.3 267.902 1933.83 272.248 1933.83ZM272.248 1932.35C268.713 1932.35 265.861 1929.48 265.861 1925.95C265.861 1922.41 268.713 1919.55 272.248 1919.55C275.783 1919.55 278.645 1922.41 278.645 1925.95C278.645 1929.48 275.783 1932.35 272.248 1932.35ZM268.654 1925.95C268.654 1926.38 268.957 1926.67 269.406 1926.67H271.506V1928.79C271.506 1929.23 271.799 1929.53 272.228 1929.53C272.678 1929.53 272.971 1929.23 272.971 1928.79V1926.67H275.09C275.529 1926.67 275.832 1926.38 275.832 1925.95C275.832 1925.51 275.529 1925.21 275.09 1925.21H272.971V1923.1C272.971 1922.65 272.678 1922.35 272.228 1922.35C271.799 1922.35 271.506 1922.65 271.506 1923.1V1925.21H269.406C268.957 1925.21 268.654 1925.51 268.654 1925.95Z" fill="black"/>
</g>
<g id="Group_2">
<path id="Vector_4" d="M293.215 1935.91C298.713 1935.91 303.176 1931.45 303.176 1925.95C303.176 1920.45 298.713 1915.99 293.215 1915.99C287.717 1915.99 283.254 1920.45 283.254 1925.95C283.254 1931.45 287.717 1935.91 293.215 1935.91ZM293.215 1934.25C288.625 1934.25 284.914 1930.54 284.914 1925.95C284.914 1921.36 288.625 1917.65 293.215 1917.65C297.805 1917.65 301.516 1921.36 301.516 1925.95C301.516 1930.54 297.805 1934.25 293.215 1934.25ZM288.684 1925.95C288.684 1926.43 289.016 1926.75 289.514 1926.75H292.385V1929.63C292.385 1930.12 292.717 1930.46 293.195 1930.46C293.684 1930.46 294.025 1930.13 294.025 1929.63V1926.75H296.906C297.395 1926.75 297.736 1926.43 297.736 1925.95C297.736 1925.46 297.395 1925.12 296.906 1925.12H294.025V1922.25C294.025 1921.75 293.684 1921.41 293.195 1921.41C292.717 1921.41 292.385 1921.75 292.385 1922.25V1925.12H289.514C289.016 1925.12 288.684 1925.46 288.684 1925.95Z" fill="black"/>
</g>
<g id="Group_3">
<path id="Vector_5" d="M319.895 1938.66C326.916 1938.66 332.619 1932.97 332.619 1925.95C332.619 1918.93 326.916 1913.22 319.895 1913.22C312.873 1913.22 307.18 1918.93 307.18 1925.95C307.18 1932.97 312.873 1938.66 319.895 1938.66ZM319.895 1936.85C313.869 1936.85 308.996 1931.97 308.996 1925.95C308.996 1919.92 313.869 1915.05 319.895 1915.05C325.92 1915.05 330.793 1919.92 330.793 1925.95C330.793 1931.97 325.92 1936.85 319.895 1936.85ZM314.123 1925.95C314.123 1926.47 314.494 1926.83 315.041 1926.83H318.987V1930.78C318.987 1931.32 319.358 1931.7 319.875 1931.7C320.412 1931.7 320.783 1931.33 320.783 1930.78V1926.83H324.739C325.276 1926.83 325.657 1926.47 325.657 1925.95C325.657 1925.4 325.285 1925.03 324.739 1925.03H320.783V1921.09C320.783 1920.54 320.412 1920.16 319.875 1920.16C319.358 1920.16 318.987 1920.54 318.987 1921.09V1925.03H315.041C314.494 1925.03 314.123 1925.4 314.123 1925.95Z" fill="black"/>
</g>
<text id="Design Variations" fill="black" xml:space="preserve" style="white-space: pre" font-family="Inter" font-size="13" font-weight="bold" letter-spacing="0em"><tspan x="263" y="1952.73">Design Variations</tspan></text>
<text id="Symbols are supported in up to nine weights and three scales." fill="black" xml:space="preserve" style="white-space: pre" font-family="Inter" font-size="13" letter-spacing="0em"><tspan x="263" y="1970.73">Symbols are supported in up to nine weights and three scales.</tspan></text>
<text id="For optimal layout with text and other symbols, vertically align" fill="black" xml:space="preserve" style="white-space: pre" font-family="Inter" font-size="13" letter-spacing="0em"><tspan x="263" y="1988.73">For optimal layout with text and other symbols, vertically align</tspan></text>
<text id="symbols with the adjacent text." fill="black" xml:space="preserve" style="white-space: pre" font-family="Inter" font-size="13" letter-spacing="0em"><tspan x="263" y="2006.73">symbols with the adjacent text.</tspan></text>
<path id="Vector_6" d="M776 1919V1933" stroke="#00AEEF" stroke-width="0.5"/>
<g id="Group_4">
<path id="Vector_7" d="M779.311 1933.16C779.828 1933.16 780.082 1932.96 780.268 1932.41L781.527 1928.97H787.289L788.549 1932.41C788.734 1932.96 788.988 1933.16 789.496 1933.16C790.014 1933.16 790.346 1932.84 790.346 1932.36C790.346 1932.19 790.316 1932.03 790.238 1931.83L785.658 1919.63C785.434 1919.04 785.033 1918.73 784.408 1918.73C783.803 1918.73 783.393 1919.03 783.178 1919.62L778.598 1931.84C778.52 1932.04 778.49 1932.2 778.49 1932.37C778.49 1932.85 778.803 1933.16 779.311 1933.16ZM782.006 1927.48L784.379 1920.91H784.428L786.801 1927.48H782.006Z" fill="black"/>
</g>
<path id="Vector_8" d="M792.836 1919V1933" stroke="#00AEEF" stroke-width="0.5"/>
<text id="Margins" fill="black" xml:space="preserve" style="white-space: pre" font-family="Inter" font-size="13" font-weight="bold" letter-spacing="0em"><tspan x="776" y="1952.73">Margins</tspan></text>
<text id="Leading and trailing margins on the left and right side of each symbol" fill="black" xml:space="preserve" style="white-space: pre" font-family="Inter" font-size="13" letter-spacing="0em"><tspan x="776" y="1970.73">Leading and trailing margins on the left and right side of each symbol</tspan></text>
<text id="can be adjusted by modifying the x-location of the margin guidelines." fill="black" xml:space="preserve" style="white-space: pre" font-family="Inter" font-size="13" letter-spacing="0em"><tspan x="776" y="1988.73">can be adjusted by modifying the x-location of the margin guidelines.</tspan></text>
<text id="Modifications are automatically applied proportionally to all" fill="black" xml:space="preserve" style="white-space: pre" font-family="Inter" font-size="13" letter-spacing="0em"><tspan x="776" y="2006.73">Modifications are automatically applied proportionally to all</tspan></text>
<text id="scales and weights." fill="black" xml:space="preserve" style="white-space: pre" font-family="Inter" font-size="13" letter-spacing="0em"><tspan x="776" y="2024.73">scales and weights.</tspan></text>
<g id="Group_5">
<path id="Vector_9" d="M1291.84 1934.87L1293.54 1936.57C1294.4 1937.44 1295.39 1937.38 1296.31 1936.36L1307.01 1924.57L1306.04 1923.6L1295.43 1935.28C1295.07 1935.68 1294.74 1935.77 1294.27 1935.3L1293.1 1934.14C1292.63 1933.68 1292.74 1933.34 1293.14 1932.98L1304.62 1922.18L1303.64 1921.21L1292.05 1932.1C1291.06 1933.02 1290.98 1934 1291.84 1934.87ZM1298.26 1916.67C1297.84 1917.08 1297.81 1917.66 1298.04 1918.05C1298.28 1918.41 1298.74 1918.64 1299.38 1918.48C1300.85 1918.14 1302.37 1918.08 1303.79 1919.02L1303.21 1920.47C1302.87 1921.3 1303.04 1921.89 1303.58 1922.43L1305.88 1924.75C1306.36 1925.24 1306.77 1925.26 1307.34 1925.16L1308.4 1924.96L1309.07 1925.64L1309.03 1926.19C1308.99 1926.69 1309.12 1927.07 1309.61 1927.55L1310.37 1928.29C1310.85 1928.77 1311.46 1928.8 1311.93 1928.33L1314.84 1925.41C1315.31 1924.94 1315.29 1924.35 1314.81 1923.87L1314.04 1923.11C1313.56 1922.63 1313.19 1922.47 1312.71 1922.51L1312.13 1922.56L1311.49 1921.93L1311.73 1920.8C1311.86 1920.24 1311.71 1919.8 1311.12 1919.21L1308.92 1917.02C1305.58 1913.7 1301.15 1913.78 1298.26 1916.67ZM1299.75 1917.04C1302.18 1915.27 1305.47 1915.57 1307.7 1917.79L1310.13 1920.21C1310.37 1920.44 1310.41 1920.63 1310.34 1920.97L1310.02 1922.45L1311.52 1923.94L1312.51 1923.88C1312.76 1923.87 1312.84 1923.89 1313.03 1924.08L1313.61 1924.66L1311.17 1927.1L1310.59 1926.53C1310.4 1926.33 1310.37 1926.25 1310.38 1925.99L1310.45 1925.01L1308.95 1923.53L1307.43 1923.78C1307.11 1923.85 1306.96 1923.82 1306.71 1923.59L1304.71 1921.58C1304.46 1921.35 1304.43 1921.18 1304.59 1920.81L1305.46 1918.72C1303.9 1917.27 1301.87 1916.64 1299.84 1917.24C1299.68 1917.28 1299.63 1917.15 1299.75 1917.04Z" fill="black"/>
</g>
<text id="Exporting" fill="black" xml:space="preserve" style="white-space: pre" font-family="Inter" font-size="13" font-weight="bold" letter-spacing="0em"><tspan x="1289" y="1952.73">Exporting</tspan></text>
<text id="Symbols should be outlined when exporting to ensure the" fill="black" xml:space="preserve" style="white-space: pre" font-family="Inter" font-size="13" letter-spacing="0em"><tspan x="1289" y="1970.73">Symbols should be outlined when exporting to ensure the</tspan></text>
<text id="design is preserved when submitting to Xcode." fill="black" xml:space="preserve" style="white-space: pre" font-family="Inter" font-size="13" letter-spacing="0em"><tspan x="1289" y="1988.73">design is preserved when submitting to Xcode.</tspan></text>
<text id="template-version" fill="black" xml:space="preserve" style="white-space: pre" font-family="Inter" font-size="13" letter-spacing="0em"><tspan x="2946.54" y="1932.73">Template v.6.0</tspan></text>
<text id="Requires Xcode 16 or greater" fill="black" xml:space="preserve" style="white-space: pre" font-family="Inter" font-size="13" letter-spacing="0em"><tspan x="2858.16" y="1950.73">Requires Xcode 16 or greater</tspan></text>
<text id="descriptive-name" fill="black" xml:space="preserve" style="white-space: pre" font-family="Inter" font-size="13" letter-spacing="0em"><tspan x="2902.6" y="1968.73">Generated from circle</tspan></text>
<text id="Typeset at 100.0 points" fill="black" xml:space="preserve" style="white-space: pre" font-family="Inter" font-size="13" letter-spacing="0em"><tspan x="2892.56" y="1986.73">Typeset at 100.0 points</tspan></text>
<text id="Small" fill="black" xml:space="preserve" style="white-space: pre" font-family="Inter" font-size="13" letter-spacing="0em"><tspan x="263" y="725.727">Small</tspan></text>
<text id="Medium_2" fill="black" xml:space="preserve" style="white-space: pre" font-family="Inter" font-size="13" letter-spacing="0em"><tspan x="263" y="1155.73">Medium</tspan></text>
<text id="Large" fill="black" xml:space="preserve" style="white-space: pre" font-family="Inter" font-size="13" letter-spacing="0em"><tspan x="263" y="1585.73">Large</tspan></text>
</g>
<g id="Guides">
<g id="H-reference">
<path id="Vector_10" d="M339.994 696H342.638L368.328 628.868H369.03V625.541H367.123L339.994 696ZM350.688 671.52H385.981L385.231 669.272H351.438L350.688 671.52ZM394.12 696H396.764L369.638 625.541H368.433V628.868L394.12 696Z" fill="#27AAE1"/>
</g>
<path id="Baseline-S" d="M263 696H3036" stroke="#27AAE1" stroke-width="0.5"/>
<path id="Capline-S" d="M263 625.541H3036" stroke="#27AAE1" stroke-width="0.5"/>
<g id="H-reference_2">
<path id="Vector_11" d="M339.994 1126H342.638L368.328 1058.87H369.03V1055.54H367.123L339.994 1126ZM350.688 1101.52H385.981L385.231 1099.27H351.438L350.688 1101.52ZM394.12 1126H396.764L369.638 1055.54H368.433V1058.87L394.12 1126Z" fill="#27AAE1"/>
</g>
<path id="Baseline-M" d="M263 1126H3036" stroke="#27AAE1" stroke-width="0.5"/>
<path id="Capline-M" d="M263 1055.54H3036" stroke="#27AAE1" stroke-width="0.5"/>
<g id="H-reference_3">
<path id="Vector_12" d="M339.994 1556H342.638L368.328 1488.87H369.03V1485.54H367.123L339.994 1556ZM350.688 1531.52H385.981L385.231 1529.27H351.438L350.688 1531.52ZM394.12 1556H396.764L369.638 1485.54H368.433V1488.87L394.12 1556Z" fill="#27AAE1"/>
</g>
<path id="Baseline-L" d="M263 1556H3036" stroke="#27AAE1" stroke-width="0.5"/>
<path id="Capline-L" d="M263 1485.54H3036" stroke="#27AAE1" stroke-width="0.5"/>
<path id="right-margin-Black-S" d="M2982.23 600.785V720.121" stroke="#00AEEF" stroke-width="0.5"/>
<path id="left-margin-Black-S" d="M2884.57 600.785V720.121" stroke="#00AEEF" stroke-width="0.5"/>
<path id="right-margin-Regular-S" d="M1496.11 600.785V720.121" stroke="#00AEEF" stroke-width="0.5"/>
<path id="left-margin-Regular-S" d="M1403.58 600.785V720.121" stroke="#00AEEF" stroke-width="0.5"/>
<path id="right-margin-Ultralight-S" d="M603.773 600.785V720.121" stroke="#00AEEF" stroke-width="0.5"/>
<path id="left-margin-Ultralight-S" d="M515.649 600.785V720.121" stroke="#00AEEF" stroke-width="0.5"/>
</g>
<g id="Symbols">
<g id="Black-S">
<g id="liquid_glass_black_small_automatic 1" clip-path="url(#clip1_0_1)">
<g id="s">
<path id="Vector_13" d="M2931.6 696C2926.17 696 2921.38 694.881 2917.22 692.643C2913.07 690.405 2909.84 687.253 2907.55 683.189C2905.27 679.124 2904.12 674.442 2904.12 669.142C2904.12 663.817 2905.27 659.122 2907.55 655.057C2909.84 650.993 2913.07 647.841 2917.22 645.603C2921.38 643.365 2926.17 642.246 2931.6 642.246H2948.57C2954 642.246 2958.79 643.365 2962.95 645.603C2967.1 647.841 2970.33 650.993 2972.62 655.057C2974.91 659.122 2976.05 663.817 2976.05 669.142C2976.05 674.442 2974.91 679.124 2972.62 683.189C2970.33 687.253 2967.1 690.405 2962.95 692.643C2958.79 694.881 2954 696 2948.57 696H2931.6ZM2903.04 679.87C2899.26 679.87 2896.31 678.809 2894.18 676.687C2892.06 674.564 2891 671.612 2891 667.83V638.04C2891 634.258 2892.06 631.306 2894.18 629.184C2896.31 627.061 2899.26 626 2903.04 626H2944.18C2947.96 626 2950.91 627.061 2953.03 629.184C2955.15 631.306 2956.22 634.258 2956.22 638.04V646.066H2945.02V639.815C2945.02 638.863 2944.81 638.188 2944.39 637.789C2943.96 637.39 2943.3 637.191 2942.4 637.191H2904.81C2903.91 637.191 2903.25 637.39 2902.83 637.789C2902.4 638.188 2902.19 638.863 2902.19 639.815V666.055C2902.19 667.007 2902.4 667.682 2902.83 668.081C2903.25 668.48 2903.91 668.679 2904.81 668.679H2913.19V679.87H2903.04ZM2948.61 684.964C2952.01 684.964 2954.94 684.334 2957.39 683.073C2959.85 681.812 2961.73 679.992 2963.05 677.613C2964.36 675.233 2965.01 672.41 2965.01 669.142C2965.01 665.875 2964.36 663.052 2963.05 660.672C2961.73 658.292 2959.85 656.466 2957.39 655.192C2954.94 653.919 2952.01 653.282 2948.61 653.282H2931.63C2928.24 653.282 2925.31 653.919 2922.84 655.192C2920.37 656.466 2918.48 658.292 2917.16 660.672C2915.85 663.052 2915.2 665.875 2915.2 669.142C2915.2 672.41 2915.85 675.233 2917.16 677.613C2918.48 679.992 2920.37 681.812 2922.84 683.073C2925.31 684.334 2928.24 684.964 2931.63 684.964H2948.61ZM2926.77 683.459C2924.51 682.739 2922.77 681.664 2921.56 680.237C2920.35 678.809 2919.75 677.117 2919.75 675.162C2919.75 673.876 2920.06 672.738 2920.69 671.747C2921.32 670.757 2922.19 669.998 2923.28 669.47C2924.37 668.943 2925.59 668.679 2926.93 668.679H2942.4C2943.3 668.679 2943.96 668.48 2944.39 668.081C2944.81 667.682 2945.02 667.007 2945.02 666.055V661.039C2945.02 659.932 2944.92 659.109 2944.72 658.569C2944.51 658.029 2944.06 657.527 2943.37 657.064C2942.93 656.755 2942.66 656.376 2942.57 655.926C2942.48 655.475 2942.62 655.083 2942.98 654.749C2943.34 654.414 2943.91 654.247 2944.68 654.247C2947.02 654.247 2949.06 654.659 2950.79 655.482C2952.53 656.305 2953.87 657.495 2954.81 659.051C2955.75 660.608 2956.22 662.454 2956.22 664.589V667.83C2956.22 671.612 2955.15 674.564 2953.03 676.687C2950.91 678.809 2947.96 679.87 2944.18 679.87H2928.93C2928.29 679.87 2927.84 680.089 2927.58 680.526C2927.33 680.963 2927.43 681.465 2927.89 682.031C2928.17 682.366 2928.3 682.668 2928.26 682.938C2928.22 683.208 2928.06 683.388 2927.78 683.478C2927.49 683.568 2927.16 683.562 2926.77 683.459Z" fill="black"/>
</g>
</g>
</g>
<g id="Regular-S">
<g id="liquid_glass_regular_small_automatic 1" clip-path="url(#clip2_0_1)">
<g id="s_2">
<path id="Vector_14" d="M1450.64 696C1445.08 696 1440.17 694.885 1435.9 692.655C1431.64 690.426 1428.34 687.282 1426 683.226C1423.66 679.169 1422.49 674.479 1422.49 669.157C1422.49 663.834 1423.66 659.144 1426 655.087C1428.34 651.031 1431.64 647.888 1435.9 645.658C1440.17 643.428 1445.08 642.313 1450.64 642.313H1464.85C1470.41 642.313 1475.32 643.428 1479.57 645.658C1483.82 647.888 1487.12 651.038 1489.47 655.109C1491.82 659.18 1493 663.863 1493 669.157C1493 674.479 1491.82 679.169 1489.47 683.226C1487.12 687.282 1483.82 690.426 1479.57 692.655C1475.32 694.885 1470.41 696 1464.85 696H1450.64ZM1418.04 679.6C1414.33 679.6 1411.56 678.694 1409.74 676.882C1407.91 675.069 1407 672.321 1407 668.639V636.962C1407 633.279 1407.91 630.531 1409.74 628.719C1411.56 626.906 1414.33 626 1418.04 626H1463.22C1466.93 626 1469.7 626.906 1471.52 628.719C1473.35 630.531 1474.26 633.279 1474.26 636.962V646.068H1467.84V637.307C1467.84 635.725 1467.44 634.523 1466.62 633.703C1465.81 632.883 1464.65 632.473 1463.14 632.473H1418.12C1416.61 632.473 1415.45 632.883 1414.64 633.703C1413.82 634.523 1413.42 635.725 1413.42 637.307V668.293C1413.42 669.876 1413.82 671.077 1414.64 671.897C1415.45 672.717 1416.61 673.127 1418.12 673.127H1426.17V679.6H1418.04ZM1464.85 689.526C1469.1 689.526 1472.87 688.671 1476.16 686.959C1479.46 685.247 1482.02 682.844 1483.84 679.752C1485.67 676.659 1486.58 673.127 1486.58 669.157C1486.58 665.186 1485.67 661.655 1483.84 658.562C1482.02 655.469 1479.46 653.066 1476.16 651.354C1472.87 649.643 1469.1 648.787 1464.85 648.787H1450.64C1446.39 648.787 1442.62 649.643 1439.32 651.354C1436.03 653.066 1433.47 655.469 1431.64 658.562C1429.82 661.655 1428.91 665.186 1428.91 669.157C1428.91 673.156 1429.82 676.695 1431.64 679.773C1433.47 682.852 1436.03 685.247 1439.32 686.959C1442.62 688.671 1446.39 689.526 1450.64 689.526H1464.85ZM1437.25 683.873C1436.42 683.154 1435.69 682.262 1435.05 681.197C1434.4 680.133 1434.08 678.924 1434.08 677.572C1434.08 676.795 1434.28 676.069 1434.68 675.393C1435.08 674.717 1435.69 674.17 1436.5 673.753C1437.31 673.336 1438.31 673.127 1439.47 673.127H1463.14C1464.65 673.127 1465.81 672.717 1466.62 671.897C1467.44 671.077 1467.84 669.876 1467.84 668.293V660.007C1467.84 657.821 1467.65 656.066 1467.26 654.742C1466.88 653.419 1466.13 652.426 1465.02 651.764C1464.7 651.592 1464.52 651.362 1464.46 651.074C1464.4 650.786 1464.5 650.549 1464.74 650.362C1464.98 650.175 1465.33 650.11 1465.79 650.168C1467.7 650.484 1469.28 651.081 1470.54 651.959C1471.79 652.836 1472.73 654.037 1473.34 655.562C1473.95 657.087 1474.26 658.972 1474.26 661.216V668.552C1474.26 672.35 1473.35 675.141 1471.52 676.925C1469.7 678.709 1466.89 679.6 1463.09 679.6H1441.61C1440.36 679.6 1439.48 679.924 1438.98 680.571C1438.48 681.219 1438.4 682.075 1438.75 683.139C1438.86 683.542 1438.86 683.851 1438.75 684.067C1438.63 684.283 1438.43 684.369 1438.15 684.326C1437.86 684.283 1437.56 684.132 1437.25 683.873Z" fill="black"/>
</g>
</g>
</g>
<g id="Ultralight-S">
<g id="liquid_glass_ultraLight_small_automatic 1" clip-path="url(#clip3_0_1)">
<g id="s_3">
<path id="Vector_15" d="M556.135 694.5C550.753 694.5 546.042 693.408 542.002 691.224C537.962 689.04 534.84 685.91 532.635 681.836C530.431 677.762 529.329 672.967 529.329 667.451C529.329 661.934 530.431 657.139 532.635 653.065C534.84 648.991 537.962 645.854 542.002 643.655C546.042 641.456 550.753 640.357 556.135 640.357H576.35C581.732 640.357 586.443 641.456 590.482 643.655C594.521 645.854 597.643 648.991 599.848 653.066C602.053 657.141 603.156 661.936 603.156 667.451C603.156 672.967 602.053 677.762 599.848 681.836C597.643 685.91 594.521 689.04 590.482 691.224C586.443 693.408 581.732 694.5 576.35 694.5H556.135ZM525.325 680.174C522.274 680.174 519.957 679.383 518.374 677.801C516.791 676.219 516 673.904 516 670.856V636.318C516 633.27 516.791 630.955 518.374 629.373C519.957 627.791 522.274 627 525.325 627H576.459C579.51 627 581.827 627.791 583.41 629.373C584.993 630.955 585.784 633.27 585.784 636.318V642.487H583.764V636.42C583.764 634.013 583.125 632.178 581.847 630.915C580.569 629.652 578.742 629.021 576.367 629.021H525.417C522.983 629.021 521.142 629.645 519.893 630.893C518.645 632.142 518.02 633.984 518.02 636.42V670.754C518.02 673.16 518.659 674.995 519.937 676.258C521.215 677.522 523.041 678.153 525.417 678.153H532.51V680.174H525.325ZM576.35 692.48C581.473 692.48 585.896 691.486 589.618 689.499C593.34 687.511 596.19 684.646 598.168 680.904C600.146 677.162 601.135 672.678 601.135 667.451C601.135 662.223 600.146 657.732 598.168 653.975C596.19 650.218 593.34 647.346 589.618 645.359C585.896 643.371 581.473 642.377 576.35 642.377H556.135C551.012 642.377 546.589 643.371 542.867 645.359C539.144 647.346 536.294 650.218 534.316 653.975C532.338 657.732 531.349 662.223 531.349 667.451C531.349 672.679 532.338 677.164 534.316 680.905C536.294 684.646 539.144 687.511 542.867 689.499C546.589 691.486 551.012 692.48 556.135 692.48H576.35ZM537.753 683.773C537.221 683.217 536.817 682.653 536.542 682.083C536.267 681.513 536.129 680.936 536.129 680.354C536.129 679.971 536.233 679.605 536.439 679.256C536.646 678.906 536.935 678.635 537.305 678.442C537.675 678.25 538.089 678.153 538.547 678.153H576.367C578.801 678.153 580.642 677.529 581.891 676.281C583.14 675.032 583.764 673.19 583.764 670.754V650.915C583.764 649.509 583.58 648.325 583.213 647.363C582.846 646.402 582.332 645.629 581.672 645.046C581.542 644.951 581.483 644.818 581.495 644.645C581.507 644.472 581.591 644.345 581.748 644.264C581.904 644.184 582.095 644.203 582.318 644.322C583.04 644.686 583.654 645.135 584.16 645.669C584.665 646.202 585.062 646.903 585.351 647.77C585.64 648.637 585.784 649.687 585.784 650.921V670.852C585.784 673.934 584.993 676.259 583.41 677.825C581.827 679.391 579.508 680.174 576.454 680.174H539.689C538.846 680.174 538.298 680.451 538.044 681.004C537.789 681.557 537.947 682.353 538.517 683.392C538.58 683.526 538.573 683.655 538.495 683.781C538.417 683.907 538.307 683.976 538.163 683.989C538.02 684.002 537.883 683.93 537.753 683.773Z" fill="black"/>
</g>
</g>
</g>
</g>
</g>
<defs>
<clipPath id="clip0_0_1">
<rect width="3300" height="2200" fill="white"/>
</clipPath>
<clipPath id="clip1_0_1">
<rect width="85.0504" height="70" fill="white" transform="translate(2891 626)"/>
</clipPath>
<clipPath id="clip2_0_1">
<rect width="86" height="70" fill="white" transform="translate(1407 626)"/>
</clipPath>
<clipPath id="clip3_0_1">
<rect width="87.156" height="67.5" fill="white" transform="translate(516 627)"/>
</clipPath>
</defs>
</svg>
