<svg width="770" height="476" viewBox="0 0 770 476" fill="none" xmlns="http://www.w3.org/2000/svg">
<path fill-rule="evenodd" clip-rule="evenodd" d="M13.5677 278.948C13.5677 278.948 14.7203 280.276 15.2226 281.782C15.6043 282.926 15.3374 284.295 15.3374 284.295C15.3374 284.295 14.5065 290.101 15.031 294.264C15.5555 298.427 16.9646 303.334 18.0159 305.66C18.7167 307.212 20.2667 309.829 22.6657 313.514C25.6821 311.427 27.4635 309.27 28.0101 307.045C28.8299 303.706 28.8715 302.159 28.4586 298.736C28.0457 295.312 25.3797 291.01 24.3163 289.537C23.0704 287.811 21.0225 285.399 18.1728 282.302C15.1028 280.066 13.5677 278.948 13.5677 278.948Z" fill="#00C7BE" fill-opacity="0.25" stroke="#00C7BE"/>
<path fill-rule="evenodd" clip-rule="evenodd" d="M438.766 183.69C441.422 185.104 442.322 188.328 442.799 188.64C443.275 188.953 443.76 189.336 444.25 188.896C444.741 188.457 444.827 187.967 444.521 187.359C444.216 186.752 441.092 182.905 440.787 181.554C440.481 180.204 441.37 175.121 441.448 168.478C441.526 161.836 435.646 146.077 434.57 142.981C433.494 139.885 421.27 116.51 409.683 109.383C398.095 102.255 397.786 99.7768 395.563 97.2106C393.34 94.6445 390.211 89.7746 389.639 88.7781C389.067 87.7815 388.579 87.351 387.937 87.4099C387.294 87.4689 386.922 89.0287 387.541 89.6515C388.161 90.2744 390.991 95.808 391.255 97.5095C391.518 99.2109 390.744 107.271 390.018 109.552C389.292 111.834 389.091 121.298 389 123.957C388.909 126.616 389.093 140.765 395.548 152.484C402.002 164.202 407.644 170.319 410.99 172.959C417.669 178.23 418.96 178.853 427.113 180.291C435.266 181.728 436.11 182.276 438.766 183.69Z" fill="#00C7BE" fill-opacity="0.25" stroke="#00C7BE"/>
<path d="M443.928 188.338L423.469 157.407" stroke="#00C7BE"/>
<path d="M443.202 188.508C443.746 188.604 444.264 188.241 444.36 187.697C444.456 187.153 444.093 186.634 443.549 186.538C443.005 186.443 442.487 186.806 442.391 187.35C442.295 187.894 442.658 188.412 443.202 188.508Z" fill="#00C7BE" stroke="#00C7BE"/>
<path fill-rule="evenodd" clip-rule="evenodd" d="M3.35414 351.095C87.5385 363.236 130.394 369.625 131.92 370.263C134.21 371.22 133.706 374.079 136.153 374.511C138.601 374.942 142.453 374.589 146.65 374.894C150.848 375.198 155.317 376.204 156.886 376.59C158.456 376.975 160.775 375.24 161.752 374.086C162.73 372.932 165.083 373.594 166.125 373.778C166.819 373.901 207.117 382.67 287.017 400.086C289.822 400.781 291.606 400.912 292.368 400.479C293.511 399.829 293.947 399.061 293.751 397.917C293.554 396.772 291.97 395.618 291.128 395.469C290.634 395.276 251.864 387.284 174.82 371.493C172.783 371.061 171.46 370.739 170.851 370.525C169.937 370.204 163.651 369.097 163.079 369.154C162.507 369.212 160.613 369.321 159.862 369.969C159.05 370.67 158.115 372.015 156.916 372.523C156.346 372.781 155.432 372.806 153.982 372.55C152.532 372.294 150.316 371.546 147.272 371.367C144.228 371.188 139.253 371.893 137.482 371.243C135.711 370.593 135.174 369.442 134.927 369C134.68 368.557 132.946 366.442 130.681 365.768C128.681 365.153 127.417 365.006 125.245 364.707C123.798 364.508 84.2083 358.452 6.47689 346.541C3.84494 346.274 2.33602 346.29 1.95011 346.587C1.37126 347.034 0.687497 347.47 1.29063 349.263C1.69271 350.458 2.38055 351.069 3.35414 351.095Z" fill="#00C7BE" fill-opacity="0.5" stroke="#00C7BE"/>
<path d="M136.331 370.45C137.403 369.968 138.079 369.657 138.36 369.519C138.78 369.312 143.349 364.64 147.165 365.313C150.981 365.986 154.37 367.618 157.116 372.256" stroke="#00C7BE"/>
<path d="M10.592 347.123L14.3096 342.803C16.1892 341.993 18.2262 341.647 20.4208 341.765C23.7126 341.942 43.292 341.632 46.461 341.908C49.6299 342.183 75.6686 342.137 78.1637 342.577C80.6587 343.017 108.83 346.15 115.192 349.436C133.549 356.526 136.219 359.037 139.179 362.121C142.138 365.205 141.802 365.038 142.691 366.406" stroke="#00C7BE"/>
<path d="M283.937 394.02L282.542 389.475C259.643 380.812 244.915 375.571 238.358 373.75C228.522 371.02 206.492 363.53 193 362.954C179.507 362.378 165.276 359.618 153.837 367.849" stroke="#00C7BE"/>
<path fill-rule="evenodd" clip-rule="evenodd" d="M741.748 166.298L743.162 165.143C743.939 163.119 744.453 161.911 744.703 161.52C745.078 160.933 746.74 158.607 751.507 155.965C756.274 153.322 761.511 153.014 763.614 154.001C765.718 154.988 761.459 160.722 759.45 162.239C757.441 163.757 752.666 166.151 749.427 166.248C747.267 166.312 745.179 165.944 743.162 165.143" fill="#00C7BE" fill-opacity="0.25"/>
<path d="M741.748 166.298L743.162 165.143M743.162 165.143C743.939 163.119 744.453 161.911 744.703 161.52C745.078 160.933 746.74 158.607 751.507 155.965C756.274 153.322 761.511 153.014 763.614 154.001C765.718 154.988 761.459 160.722 759.45 162.239C757.441 163.757 752.666 166.151 749.427 166.248C747.267 166.312 745.179 165.944 743.162 165.143Z" stroke="#00C7BE"/>
<path fill-rule="evenodd" clip-rule="evenodd" d="M670.949 112.261C672.01 111.764 671.701 111.453 676.195 110.793C680.689 110.132 683.898 109.954 687.337 110.56C690.776 111.166 693.675 112.749 694.528 113.302C695.381 113.855 700.852 119.296 701.028 119.614C701.205 119.931 706.494 127.057 704.747 126.749C703 126.441 699.409 127.218 697.347 127.759C695.286 128.301 687.601 126.935 685.195 126.51C682.788 126.086 677.192 123.963 675.453 122.994C673.714 122.025 668.258 115.884 667.274 115.466C666.618 115.187 664.597 114.831 661.211 114.397C660.622 114.111 660.379 113.678 660.482 113.097C660.635 112.225 661.565 112.389 661.565 112.389C661.565 112.389 665.665 113.71 667.628 113.458C669.591 113.206 669.889 112.758 670.949 112.261Z" fill="#00C7BE" fill-opacity="0.25" stroke="#00C7BE"/>
<path fill-rule="evenodd" clip-rule="evenodd" d="M674.801 142.706C674.801 142.706 686.321 143.225 690.246 141.537C694.172 139.849 696.817 138.017 697.77 135.527C698.405 133.867 698.586 132.84 698.313 132.446C695.308 132.235 693.384 132.261 692.542 132.524C691.279 132.918 688.254 133.451 685.624 134.769C682.995 136.087 680.67 138.768 680.67 138.768C680.67 138.768 678.413 142.309 678.325 142.812" fill="#00C7BE" fill-opacity="0.25"/>
<path d="M674.801 142.706C674.801 142.706 686.321 143.225 690.246 141.537C694.172 139.849 696.817 138.017 697.77 135.527C698.405 133.867 698.586 132.84 698.313 132.446C695.308 132.235 693.384 132.261 692.542 132.524C691.279 132.918 688.254 133.451 685.624 134.769C682.995 136.087 680.67 138.768 680.67 138.768C680.67 138.768 678.413 142.309 678.325 142.812" stroke="#00C7BE"/>
<path fill-rule="evenodd" clip-rule="evenodd" d="M612.585 178.581C609.489 171.065 607.052 167.439 605.276 167.703C602.611 168.099 593.833 163.721 591.677 160.813C589.521 157.905 577.534 147.636 573.702 141.036C569.869 134.437 564.246 128.88 562.864 125.434C561.482 121.989 561.103 122.198 559.987 121.087C559.244 120.346 558.372 119.276 557.371 117.876C558.649 118.573 560.051 119.056 561.579 119.325C563.87 119.729 566.278 117.601 567.975 116.123C569.672 114.644 574.789 115.864 577.935 117.027C581.081 118.19 589.63 121.455 595.817 130.062C602.003 138.669 606.701 151.411 607.155 152.941C607.609 154.47 609.823 162.816 609.798 169.421C609.796 169.943 609.67 170.661 609.418 171.576" fill="#00C7BE" fill-opacity="0.25"/>
<path d="M612.585 178.581C609.489 171.065 607.052 167.439 605.276 167.703C602.611 168.099 593.833 163.721 591.677 160.813C589.521 157.905 577.534 147.636 573.702 141.036C569.869 134.437 564.246 128.88 562.864 125.434C561.482 121.989 561.103 122.198 559.987 121.087C559.244 120.346 558.372 119.276 557.371 117.876C558.649 118.573 560.051 119.056 561.579 119.325C563.87 119.729 566.278 117.601 567.975 116.123C569.672 114.644 574.789 115.864 577.935 117.027C581.081 118.19 589.63 121.455 595.817 130.062C602.003 138.669 606.701 151.411 607.155 152.941C607.609 154.47 609.823 162.816 609.798 169.421C609.796 169.943 609.67 170.661 609.418 171.576" stroke="#00C7BE"/>
<path fill-rule="evenodd" clip-rule="evenodd" d="M492.353 246.081C506.81 240.203 515.207 236.988 517.544 236.437C521.05 235.61 524.776 233.871 531.565 235.676C538.354 237.481 540.805 239.648 542.686 241.155C544.566 242.661 545.166 245.822 545.272 247.034C545.378 248.247 545.606 248.78 546.335 249.156C546.821 249.406 547.21 249.638 547.502 249.851L542.381 250.746C535.732 252.468 530.427 253.074 526.465 252.564C520.523 251.8 514.592 251.088 509.72 249.899C504.847 248.709 506.13 247.192 501.861 246.254C499.015 245.628 495.846 245.57 492.353 246.081Z" fill="#00C7BE" fill-opacity="0.25" stroke="#00C7BE"/>
<path d="M546.901 249.806C542.893 247.51 538.87 246.006 534.833 245.295C528.777 244.227 524.851 244.308 523.613 244.508" stroke="#00C7BE"/>
<path fill-rule="evenodd" clip-rule="evenodd" d="M638.44 273.787L630.044 277.149L636.706 271.642C636.291 268.643 637.76 265.499 641.115 262.207C646.146 257.27 657.242 250.024 660.441 248.789C662.574 247.965 666.39 247.013 671.888 245.931C671.047 250.499 670.206 253.842 669.365 255.96C668.104 259.138 666.548 262.552 663.721 264.777C660.894 267.002 654.974 272.294 650.994 273.467C647.015 274.64 645.091 275.531 642.356 275.049C640.532 274.727 639.227 274.306 638.44 273.787Z" fill="#00C7BE" fill-opacity="0.25" stroke="#00C7BE"/>
<path fill-rule="evenodd" clip-rule="evenodd" d="M411.899 257.903C401.796 263.751 396.24 267.252 395.23 268.408C394.415 269.342 389.85 273.358 385.359 275.996C381.51 278.256 373.173 283.222 369.731 284.544C366.289 285.866 359.659 287.377 355.668 287.284C351.677 287.191 348.519 287.847 346.979 289.392C345.953 290.422 343.278 292.299 338.953 295.023L346.072 284.158C354.492 272.711 360.461 265.089 363.977 261.294C369.251 255.601 381.988 251.274 386.476 250.006C390.965 248.738 399.378 250.823 401.356 252.086C403.335 253.348 404.492 255.254 405.512 256.777C406.532 258.3 406.511 258.226 408.009 258.081C409.009 257.985 410.305 257.926 411.899 257.903Z" fill="#00C7BE" fill-opacity="0.25" stroke="#00C7BE"/>
<path d="M406.55 257.508C381.735 266.435 368.875 271.576 367.969 272.929" stroke="#00C7BE"/>
<path fill-rule="evenodd" clip-rule="evenodd" d="M536.972 390.488C535.817 391.153 534.86 391.705 534.101 392.142C533.341 392.579 532.582 393.017 531.822 393.454C531.429 393.69 531.367 394.045 531.635 394.517C531.902 394.99 532.389 395.076 533.094 394.775L537.624 392.097C538.645 395.131 541.184 396.484 545.241 396.156C551.325 395.664 563.486 394.519 568.641 391.317C573.797 388.115 584.788 381.026 589.865 375.412C594.941 369.797 603.559 355.942 605.356 349.156C607.152 342.369 607.93 337.479 607.751 335.572C607.571 333.666 608.053 330.93 608.733 329.999C609.413 329.068 610.671 327.702 612.606 326.312C613.896 325.386 615.756 323.737 618.187 321.367L612.66 324.007C608.613 326.385 605.63 328.202 603.711 329.459C600.832 331.343 594.396 332.947 589.748 333.481C585.099 334.014 575.741 338.39 572.557 341.079C569.373 343.767 557.017 353.303 554.061 358.098C551.106 362.894 541.655 373.401 540.225 377.343C538.795 381.285 538.235 383.329 538.082 384.196C537.98 384.774 537.61 386.872 536.972 390.488Z" fill="#00C7BE" fill-opacity="0.25" stroke="#00C7BE"/>
<path d="M537.814 391.109C535.892 391.784 534.119 392.974 532.495 394.677L531.804 394.013C547.201 383.727 554.9 378.584 554.9 378.584" stroke="#00C7BE"/>
<path fill-rule="evenodd" clip-rule="evenodd" d="M421.981 381.748C421.981 381.748 406.55 364.178 398.211 361.687C389.871 359.196 385.496 358.613 381.482 358.737C377.468 358.861 372.9 363.396 372.779 364.082C372.658 364.768 372.112 366.04 370.663 365.785C369.697 365.615 368.88 365.661 368.212 365.923L373.846 368.103C376.108 369.396 379.656 371.105 384.492 373.229C391.746 376.416 399.124 378.695 401.349 378.764C403.575 378.834 412.798 379.054 414.352 378.495C415.906 377.935 418.732 380.072 419.209 380.429C419.686 380.786 421.981 381.748 421.981 381.748Z" fill="#00C7BE" fill-opacity="0.25" stroke="#00C7BE"/>
<path fill-rule="evenodd" clip-rule="evenodd" d="M105.002 265.211C111.301 255.41 115.808 249.602 118.523 247.787C122.596 245.064 127.834 243.56 131.602 244.225C135.37 244.889 136.425 247.055 137.055 248.26C137.685 249.466 133.799 249.799 132.093 251.669C130.387 253.539 127.751 255.303 126.468 256.158C125.185 257.012 119.234 261.469 116.045 261.84C112.856 262.211 112.155 261.043 109.893 262.245C108.385 263.046 106.754 264.034 105.002 265.211Z" fill="#00C7BE" fill-opacity="0.25" stroke="#00C7BE"/>
<path fill-rule="evenodd" clip-rule="evenodd" d="M70.2141 158.979C69.7329 164.15 70.1677 167.923 71.5186 170.297C73.5449 173.857 77.7155 177.972 79.6362 179.141C81.557 180.31 84.8303 183.221 85.7323 185.211C86.6344 187.2 86.3244 179.46 87.2741 176.467C88.552 172.439 81.6114 162.567 78.3729 161.207C76.214 160.3 73.4944 159.558 70.2141 158.979Z" fill="#00C7BE" fill-opacity="0.25" stroke="#00C7BE"/>
<path fill-rule="evenodd" clip-rule="evenodd" d="M198.4 202.237C198.4 202.237 195.717 206.327 197.217 208.942C198.717 211.558 201.399 215.525 204.922 216.146C208.445 216.767 212.448 219.156 213.564 220.749C214.68 222.341 213.352 215.179 212.348 213.81C211.343 212.44 208.219 206.148 205.405 204.77C202.592 203.393 198.4 202.237 198.4 202.237Z" fill="#00C7BE" fill-opacity="0.25" stroke="#00C7BE"/>
<path fill-rule="evenodd" clip-rule="evenodd" d="M307.796 199.526L303.75 197.196C300.406 193.406 297.305 191.043 294.447 190.105C290.16 188.699 284.18 185.94 276.346 187.879C268.512 189.818 265.358 193.712 264.2 195.97C263.042 198.227 278.669 204.551 286.665 203.488C294.66 202.426 301.635 199.74 303.436 198.976C304.636 198.467 306.09 198.65 307.796 199.526Z" fill="#00C7BE" fill-opacity="0.25" stroke="#00C7BE"/>
<path fill-rule="evenodd" clip-rule="evenodd" d="M287.253 221.028C277.356 212.29 271.649 206.758 270.131 204.43C267.854 200.938 266.33 209.585 267.119 211.081C269.2 215.026 271.921 218.554 278.535 220.139C282.944 221.196 285.85 221.492 287.253 221.028Z" fill="#00C7BE" fill-opacity="0.25" stroke="#00C7BE"/>
<path fill-rule="evenodd" clip-rule="evenodd" d="M280.06 361.645L277.925 356.557C275.429 342.541 271.634 333.587 266.539 329.695C258.897 323.858 258.979 322.459 254.254 319.65C249.53 316.841 250.803 332.567 251.616 334.612C254.622 342.174 258.571 348.695 264.444 352.897C270.317 357.099 275.609 358.646 277.498 358.979C278.758 359.201 279.612 360.09 280.06 361.645Z" fill="#00C7BE" fill-opacity="0.25" stroke="#00C7BE"/>
</svg>
