<?xml version="1.0" encoding="UTF-8"?>
<svg width="751px" height="462px" viewBox="0 0 751 462" version="1.1" xmlns="http://www.w3.org/2000/svg" xmlns:xlink="http://www.w3.org/1999/xlink">
    <title>Leaves and book</title>
    <g id="Page-2" stroke="none" stroke-width="1" fill="none" fill-rule="evenodd">
        <path d="M22.0977532,355.171109 C22.0977532,355.171109 23.4633124,356.278523 24.2195202,357.674478 C24.7941886,358.735313 24.768972,360.129491 24.768972,360.129491 C24.768972,360.129491 24.958877,365.991261 26.1983177,370 C27.4377583,374.008739 29.677549,378.596622 31.1168522,380.705359 C32.0763876,382.111183 34.0573711,384.420019 37.0598026,387.631867 C39.6679003,385.052731 41.047825,382.619764 41.1995766,380.332966 C41.4272039,376.90277 41.1995766,375.372129 40.1984708,372.072482 C39.1973651,368.772834 35.8247159,364.99844 34.5217417,363.732465 C32.9949907,362.249068 30.5594848,360.229739 27.215224,357.674478 C23.8035768,356.005565 22.0977532,355.171109 22.0977532,355.171109 Z" id="Leaf" stroke="#979797" fill-opacity="0.25" fill="#D8D8D8"></path>
        <g id="Leaf" transform="translate(357.0155, 101.4922)" stroke="#979797">
            <path d="M67.2792246,86.0328665 C70.140624,86.9640751 71.5865515,89.9831767 72.1103236,90.2080654 C72.6340957,90.432954 73.1781485,90.7258898 73.5846501,90.2080654 C73.9911518,89.6902409 73.9911518,89.1923651 73.5846501,88.6475158 C73.1781485,88.1026665 69.4340739,84.8558534 68.8985454,83.5788737 C68.3630169,82.301894 68.3563255,77.141955 67.2792246,70.5869653 C66.2021238,64.0319756 57.6756397,49.5338889 56.07812,46.6714772 C54.4806003,43.8090655 38.3838641,22.9122569 25.734516,17.904913 C13.085168,12.897569 12.3507274,10.5109607 9.71574337,8.36981357 C7.08075937,6.22866644 3.15338001,1.97616431 2.41732021,1.09405833 C1.6812604,0.211952341 1.12622015,-0.127418831 0.503499953,0.0422667549 C-0.119220242,0.211952341 -0.214749341,1.81263145 0.503499953,2.31844993 C1.22174925,2.82426841 4.9697282,7.78239056 5.52476846,9.41221414 C6.07980871,11.0420377 6.71710114,19.1140847 6.39845493,21.4867684 C6.07980871,23.8594522 7.52435371,33.2149711 7.89692943,35.8494665 C8.26950516,38.4839619 10.9075298,52.3861562 19.2987697,62.8058747 C27.6900097,73.2255931 34.3079864,78.2694944 38.0616036,80.2886402 C45.5553388,84.3196702 46.9348712,84.7091732 55.2134359,84.7091732 C63.4920007,84.7091732 64.4178253,85.101658 67.2792246,86.0328665 Z" id="Path-2" fill-opacity="0.25" fill="#D8D8D8"></path>
            <line x1="73.1704894" y1="89.7142288" x2="47.6504805" y2="62.8058747" id="Path-3"></line>
            <circle id="Oval" fill="#979797" cx="72.484541" cy="89.0078353" r="1"></circle>
        </g>
        <path d="M24.5674427,427.995144 C109.581127,425.333275 152.894997,424.183871 154.509054,424.546932 C156.93014,425.091523 156.93014,427.995144 159.415207,427.995144 C161.900275,427.995144 165.632479,426.97865 169.819414,426.549483 C174.006349,426.120317 178.581751,426.335523 180.194199,426.442503 C181.806647,426.549483 183.789303,424.438201 184.551429,423.131813 C185.313555,421.825426 187.74641,422.069302 188.803994,422.069302 C189.50905,422.069302 230.717214,423.70793 312.428487,426.985186 C315.311454,427.182151 317.090658,427.001257 317.766098,426.442503 C318.779258,425.604373 319.074457,424.771825 318.682625,423.679012 C318.290793,422.586199 316.53009,421.724354 315.67541,421.724354 C315.154551,421.619943 275.586227,420.48161 196.970439,418.309357 C194.889622,418.23765 193.530721,418.149447 192.893737,418.044747 C191.938262,417.887698 185.555676,417.889148 185.002269,418.044747 C184.448862,418.200347 182.601707,418.636983 181.974701,419.405838 C181.29719,420.236624 180.609546,421.724354 179.517371,422.432801 C179.000654,422.785552 178.104916,422.968549 176.632615,422.968549 C175.160313,422.968549 172.848056,422.615798 169.819414,422.968549 C166.790771,423.3213 162.012908,424.879578 160.156117,424.546932 C158.299327,424.214285 157.570744,423.173913 157.25069,422.781101 C156.930636,422.388289 154.855288,420.60657 152.507746,420.335277 C150.431232,420.077098 149.160863,420.152306 146.970635,420.234788 C145.510484,420.289776 105.470951,421.20103 26.8520364,422.968549 C24.2137211,423.162671 22.7304137,423.439957 22.4021142,423.800407 C21.909665,424.34108 21.3118471,424.888344 22.2171833,426.549483 C22.8207408,427.656909 23.6041606,428.138796 24.5674427,427.995144 Z" id="Book-cover" stroke="#979797" fill-opacity="0.5" fill="#D8D8D8"></path>
        <path d="M158.885489,423.965857 C159.85723,423.304415 160.469134,422.881307 160.721201,422.696532 C161.099301,422.41937 164.787179,417.024858 168.662326,417.024858 C172.537473,417.024858 176.158008,418.043812 179.668116,422.135064" id="Book-spine" stroke="#979797"></path>
        <path d="M31.0057561,422.827502 L33.9167212,417.927503 C35.6270421,416.803142 37.5730496,416.108564 39.7547436,415.843769 C43.0272846,415.446578 62.2554836,411.741365 65.4241438,411.462444 C68.592804,411.183523 94.2279058,406.61671 96.7614542,406.61671 C99.2950026,406.61671 127.582712,404.810327 134.418542,406.941756 C153.727614,410.735728 156.79342,412.745075 160.243564,415.26857 C163.693707,417.792065 163.333437,417.685685 164.446191,418.878691" id="Left-page" stroke="#979797"></path>
        <path d="M308.341586,421.546069 L306.17857,417.311631 C282.123158,412.757035 266.708665,410.152813 259.935093,409.498965 C249.774734,408.518192 226.778957,404.967119 213.391287,406.742656 C200.003617,408.518192 185.509619,408.272064 175.673672,418.364446" id="Right-page" stroke="#979797"></path>
        <path d="M719.653876,117.785667 L720.846204,116.402698 C721.2597,114.274336 721.555706,112.995783 721.73422,112.567038 C722.001991,111.92392 723.234832,109.344293 727.470426,105.914391 C731.706019,102.484489 736.809429,101.271606 739.052522,101.878048 C741.295614,102.484489 738.096934,108.871558 736.382225,110.714541 C734.667515,112.557524 730.380153,115.74507 727.207119,116.402698 C725.091764,116.841117 722.971458,116.841117 720.846204,116.402698" id="Leaf" stroke="#979797" fill-opacity="0.25" fill="#D8D8D8"></path>
        <path d="M640.54729,76.8632828 C641.505456,76.1898332 641.147822,75.9371909 645.458564,74.5065591 C649.769305,73.0759273 652.898958,72.342602 656.390731,72.342602 C659.882504,72.342602 663.012065,73.3975497 663.94811,73.7939434 C664.884155,74.190337 671.217264,78.5991724 671.446226,78.8813322 C671.675187,79.163492 678.121474,85.2627459 676.347492,85.2627459 C674.57351,85.2627459 671.171768,86.6509832 669.235463,87.5421722 C667.299159,88.4333612 659.494198,88.4224988 657.050729,88.4224988 C654.60726,88.4224988 648.727043,87.3031914 646.846347,86.6509832 C644.965651,85.9987749 638.526562,80.898946 637.484733,80.6577248 C636.790181,80.4969106 634.737766,80.4969106 631.32749,80.6577248 C630.698368,80.4789825 630.383808,80.0945122 630.383808,79.504314 C630.383808,78.6190166 631.32749,78.6190166 631.32749,78.6190166 C631.32749,78.6190166 635.595376,79.2083658 637.484733,78.6190166 C639.374091,78.0296674 639.589123,77.5367325 640.54729,76.8632828 Z" id="Leaf" stroke="#979797" fill-opacity="0.25" fill="#D8D8D8"></path>
        <path d="M649.627731,106.177404 C649.627731,106.177404 661.062048,104.687684 664.634853,102.343842 C668.207658,100 670.494631,97.7365318 671.000369,95.1184453 C671.337527,93.3730543 671.337527,92.3303288 671.000369,91.9902689 C668.004142,92.3043378 666.114289,92.6638607 665.33081,93.0688379 C664.15559,93.6763036 661.268405,94.7267659 658.90763,96.4811631 C656.546856,98.2355603 654.723552,101.279598 654.723552,101.279598 C654.723552,101.279598 653.115853,105.159037 653.115853,105.669309" id="Path" stroke="#979797" fill-opacity="0.25" fill="#D8D8D8"></path>
        <path d="M594.586471,152.310587 C590.231592,145.446876 587.202424,142.299175 585.49897,142.867486 C582.943788,143.719951 573.538328,140.932279 570.910078,138.44308 C568.281827,135.953881 554.694194,127.922551 549.773809,122.088588 C544.853423,116.254626 538.350774,111.75848 536.391653,108.605465 C534.432533,105.452451 534.09509,105.723911 532.803771,104.823619 C531.942892,104.223425 530.898234,103.320918 529.669798,102.116101 C531.048799,102.580196 532.513859,102.812244 534.064977,102.812244 C536.391653,102.812244 538.393286,100.298246 539.807714,98.5477031 C541.222143,96.79716 546.473507,97.1100859 549.773809,97.7089658 C553.074111,98.3078456 562.059938,100.0383 569.6471,107.440356 C577.234263,114.842412 584.073191,126.575346 584.78608,128.002833 C585.49897,129.43032 589.128301,137.264529 590.250908,143.773545 C590.33965,144.288087 590.33965,145.017711 590.250908,145.962417" id="Leaf" stroke="#979797" fill-opacity="0.25" fill="#D8D8D8"></path>
        <g id="Leaf" transform="translate(487.9023, 222.5117)" stroke="#979797">
            <path d="M0,17.1510339 C13.2165244,8.85206932 20.9276333,4.22819511 23.1333267,3.27941129 C26.4418669,1.85623558 29.8100607,-0.503532416 36.8092942,0.0954543978 C43.8085276,0.694441212 46.5986689,2.40272255 48.7122509,3.55974445 C50.825833,4.71676635 51.9655952,7.72556394 52.2802203,8.9010932 C52.5948454,10.0766225 52.91218,10.5622243 53.6952673,10.8058416 C54.2173254,10.9682531 54.6407637,11.128961 54.9655822,11.2879654 L50.0774947,13.0582899 C43.8285666,15.9085493 38.709218,17.4267228 34.7194489,17.6128104 C28.7347952,17.8919417 22.7701072,18.2210841 17.7653209,17.8956247 C12.7605345,17.5701653 13.7605428,15.8535631 9.39331878,15.6705214 C6.4818361,15.5484936 3.35072984,16.0419978 0,17.1510339 Z" id="Path-5" fill-opacity="0.25" fill="#D8D8D8"></path>
            <path d="M54.3656238,11.3477481 C50.0197934,9.7828901 45.797137,9.0004611 41.6976545,9.0004611 C35.5484308,9.0004611 31.6961275,9.76269356 30.5112637,10.1741046" id="Path-6"></path>
        </g>
        <path d="M636.580698,241.580384 L628.896157,246.349236 L634.500105,239.768894 C633.57081,236.888399 634.472057,233.536244 637.203844,229.71243 C641.301525,223.976708 650.970607,214.914102 653.906934,213.141907 C655.864486,211.960443 659.45677,210.359712 664.683787,208.339713 C664.64833,212.984069 664.400527,216.422353 663.940378,218.654565 C663.250155,222.002883 662.310673,225.635388 659.91295,228.317694 C657.515227,231 652.603884,237.239001 648.888823,239.085418 C645.173762,240.931835 643.433716,242.143199 640.655755,242.143199 C638.803781,242.143199 637.445429,241.955594 636.580698,241.580384 Z" id="Leaf" stroke="#979797" fill-opacity="0.25" fill="#D8D8D8"></path>
        <g id="Leaf" transform="translate(345.3313, 260.5482)" stroke="#979797">
            <path d="M65.391563,4.72854957 C56.4573872,12.2415294 51.5936865,16.6547913 50.8004609,17.9683352 C50.1597562,19.0293116 46.3613669,23.7776709 42.3967977,27.1544764 C38.998853,30.0486618 31.6508228,36.3872122 28.4904743,38.2867043 C25.3301258,40.1861964 19.063819,42.8260856 15.1173428,43.4275378 C11.1708667,44.0289901 8.17436855,45.2233475 6.9265135,47.012193 C6.09461014,48.2047566 3.7857723,50.5178152 0,53.9513686 L5.12405621,42.0147583 C11.4285415,29.2793772 15.9826954,20.7374897 18.7865178,16.3890958 C22.9922515,9.86650493 34.7838802,3.39424612 38.9842325,1.36608598 C43.1845847,-0.662074162 51.8314487,-0.0696334316 53.9990119,0.829843855 C56.1665751,1.72932114 57.6376383,3.40553052 58.9065453,4.72854957 C60.1754523,6.05156861 60.1415627,5.9815718 61.5922538,5.57902079 C62.5593813,5.31065345 63.8258177,5.02716304 65.391563,4.72854957 Z" id="Path-7" fill-opacity="0.25" fill="#D8D8D8"></path>
            <path d="M60.0555227,5.267943 C37.1679958,18.3686004 25.3955124,25.6641115 24.7380726,27.1544764" id="Path-8"></path>
        </g>
        <g id="Leaf" transform="translate(552.1031, 291.9542)" stroke="#979797">
            <path d="M4.81620411,82.1743252 C3.79449412,83.0298273 2.94760718,83.7389459 2.27554329,84.301681 C1.6034794,84.8644161 0.931415503,85.4271513 0.25935161,85.9898864 C-0.0864505368,86.2904411 -0.0864505368,86.6501702 0.25935161,87.0690737 C0.605153758,87.4879772 1.0991047,87.4879772 1.74120443,87.0690737 L5.73702548,83.6454135 C7.27020735,86.456105 10.005669,87.3476737 13.9434103,86.3201195 C19.8500224,84.7787882 31.6269391,81.5399491 36.148214,77.4914002 C40.6694889,73.4428514 50.262982,64.5529639 54.2869943,58.1423292 C58.3110066,51.7316944 64.3922411,36.5906437 64.9833267,29.5950396 C65.5744122,22.5994355 65.4913841,17.6484996 64.9833267,15.8021706 C64.4752692,13.9558416 64.4752692,11.1776711 64.9833267,10.1426821 C65.4913841,9.10769312 66.4928644,7.54399003 68.1569928,5.83967464 C69.2664118,4.70346437 70.8121629,2.75690616 72.7942461,0 L67.8098273,3.55999567 C64.2373802,6.60464262 61.6152566,8.9122341 59.9434566,10.4827701 C57.4357567,12.8385741 51.3756735,15.5353474 46.8904932,16.8684205 C42.405313,18.2014936 33.9494159,24.1355279 31.2804371,27.3363196 C28.6114583,30.5371114 18.0991182,42.0732394 16.0212643,47.3090479 C13.9434103,52.5448563 6.4608128,64.5335875 5.73702548,68.6638439 C5.01323815,72.7941004 4.81620411,74.9047973 4.81620411,75.7854192 C4.81620411,76.3725004 4.81620411,78.5021358 4.81620411,82.1743252 Z" fill-opacity="0.25" fill="#D8D8D8"></path>
            <path d="M5.75269949,82.6391227 C3.97789541,83.6383987 2.43835307,85.1176673 1.13407248,87.0769282 L0.338147455,86.5428473 C13.7154106,73.7396616 20.4040422,67.3380687 20.4040422,67.3380687" id="Path-4"></path>
        </g>
        <path d="M442.157251,385.488757 C442.157251,385.488757 423.910158,370.865423 415.264618,369.860342 C406.619077,368.855262 402.209031,369.041477 398.277595,369.860342 C394.346159,370.679207 390.63486,375.939246 390.63486,376.63546 C390.63486,377.331673 390.318181,378.680006 388.846854,378.680006 C387.865969,378.680006 387.069573,378.867084 386.457666,379.241241 L392.384253,380.410092 C394.836022,381.290795 398.62752,382.357415 403.758747,383.609952 C411.455587,385.488757 419.117143,386.451855 421.320805,386.133622 C423.524468,385.815389 432.646032,384.430611 434.079412,383.609952 C435.512791,382.789293 438.666533,384.402545 439.198211,384.671615 C439.729889,384.940685 442.157251,385.488757 442.157251,385.488757 Z" id="Leaf" stroke="#979797" fill-opacity="0.25" fill="#D8D8D8"></path>
        <path d="M109.757752,325.765259 C114.258623,315.01936 117.688512,308.516887 120.047419,306.257839 C123.585779,302.869268 128.48306,300.478937 132.309125,300.478937 C136.135191,300.478937 137.550326,302.428282 138.380273,303.50648 C139.21022,304.584677 135.440717,305.587457 134.085289,307.725348 C132.72986,309.863238 130.440086,312.058041 129.324878,313.122098 C128.209669,314.186155 123.123844,319.608917 120.047419,320.528248 C116.970993,321.447579 116.078547,320.418962 114.059021,321.995058 C112.712671,323.045789 111.278914,324.302523 109.757752,325.765259 Z" id="Leaf" stroke="#979797" fill-opacity="0.25" fill="#D8D8D8"></path>
        <path d="M57.0511783,227.188397 C57.4751894,232.364519 58.5584897,236.00416 60.3010794,238.107318 C62.914964,241.262056 67.7367345,244.590383 69.8312852,245.408119 C71.925836,246.225855 75.6549014,248.524122 76.8886779,250.326487 C78.1224543,252.128853 76.4732239,244.56058 76.8886779,241.448079 C77.4477452,237.259654 68.8983016,228.742573 65.4728982,227.965485 C63.1892959,227.447426 60.382056,227.188397 57.0511783,227.188397 Z" id="Leaf" stroke="#979797" fill-opacity="0.25" fill="#D8D8D8"></path>
        <path d="M190.800869,247.529561 C190.800869,247.529561 188.869562,252.023093 190.800869,254.338733 C192.732176,256.654374 196.062265,260.094903 199.639339,260.094903 C203.216413,260.094903 207.573801,261.752719 208.94929,263.127003 C210.324779,264.501287 207.77389,257.678571 206.546833,256.504481 C205.319776,255.33039 201.14997,249.676457 198.140047,248.808282 C195.130125,247.940107 190.800869,247.529561 190.800869,247.529561 Z" id="Path-9" stroke="#979797" fill-opacity="0.25" fill="#D8D8D8"></path>
        <path d="M298.064838,225.863732 L293.6752,224.27175 C289.724382,221.11999 286.260189,219.330756 283.282622,218.904048 C278.81627,218.263986 272.448634,216.585074 265.070314,219.855061 C257.691995,223.125049 255.261464,227.506899 254.51318,229.9315 C253.764897,232.356102 270.252705,235.869958 277.942346,233.434979 C285.631987,231 292.034832,227.144195 293.6752,226.079334 C294.768779,225.369427 296.231991,225.29756 298.064838,225.863732 Z" id="Leaf" stroke="#979797" fill-opacity="0.25" fill="#D8D8D8"></path>
        <path d="M281.567853,250.605838 C270.303969,243.719688 263.722491,239.262227 261.823418,237.233455 C258.974809,234.190297 258.974809,242.969968 260.011831,244.306181 C262.746613,247.829972 266.038565,250.832206 272.827263,251.245008 C277.353062,251.520209 280.266592,251.307152 281.567853,250.605838 Z" id="Leaf" stroke="#979797" fill-opacity="0.25" fill="#D8D8D8"></path>
        <path d="M298.901718,390.336034 L295.915983,385.696293 C291.024004,372.326162 285.731359,364.167172 280.038049,361.219322 C271.498084,356.797548 271.335824,355.405626 266.19547,353.459626 C261.055115,351.513627 265.039834,366.779908 266.19547,368.652628 C270.469072,375.578049 275.490281,381.314149 282.003864,384.432234 C288.517447,387.55032 293.99765,388.155617 295.915983,388.155617 C297.194872,388.155617 298.190117,388.882423 298.901718,390.336034 Z" id="Leaf" stroke="#979797" fill-opacity="0.25" fill="#D8D8D8"></path>
    </g>
</svg>