<svg width="780" height="509" viewBox="0 0 780 509" fill="none" xmlns="http://www.w3.org/2000/svg">
<path fill-rule="evenodd" clip-rule="evenodd" d="M64.1605 437.825C64.1605 437.825 65.7402 438.597 66.791 439.787C67.5896 440.691 67.8786 442.055 67.8786 442.055C67.8786 442.055 69.3823 447.724 71.4917 451.351C73.6012 454.978 76.8156 458.945 78.6924 460.676C79.9436 461.83 82.3932 463.634 86.0411 466.088C88.0022 462.988 88.7995 460.307 88.4329 458.045C87.8831 454.651 87.317 453.211 85.5993 450.221C83.8816 447.231 79.7463 444.312 78.1919 443.372C76.3706 442.27 73.5433 440.85 69.7099 439.113C66.0103 438.254 64.1605 437.825 64.1605 437.825Z" fill="#00C7BE" fill-opacity="0.25" stroke="#00C7BE"/>
<path fill-rule="evenodd" clip-rule="evenodd" d="M418.337 184.001C421.335 184.265 423.423 186.881 423.984 186.982C424.544 187.084 425.14 187.247 425.42 186.651C425.7 186.055 425.588 185.57 425.069 185.13C424.55 184.691 420.172 182.369 419.363 181.246C418.554 180.122 417.387 175.096 414.862 168.951C412.338 162.806 400.769 150.598 398.569 148.168C396.368 145.738 375.983 128.998 362.532 126.965C349.08 124.931 347.828 122.771 344.779 121.277C341.729 119.784 336.946 116.524 336.03 115.83C335.115 115.136 334.498 114.93 333.929 115.236C333.36 115.541 333.627 117.122 334.441 117.453C335.255 117.785 340.022 121.773 340.929 123.236C341.837 124.699 344.274 132.421 344.497 134.804C344.72 137.188 348.232 145.979 349.188 148.462C350.144 150.945 355.841 163.897 366.361 172.162C376.881 180.428 384.464 183.853 388.576 184.976C396.785 187.218 398.216 187.288 406.283 185.425C414.349 183.563 415.339 183.737 418.337 184.001Z" fill="#00C7BE" fill-opacity="0.25" stroke="#00C7BE"/>
<path d="M424.905 186.263L393.986 165.785" stroke="#00C7BE"/>
<path d="M424.303 186.703C424.841 186.579 425.177 186.042 425.053 185.504C424.928 184.966 424.391 184.63 423.853 184.754C423.315 184.879 422.98 185.416 423.104 185.954C423.228 186.492 423.765 186.827 424.303 186.703Z" fill="#00C7BE" stroke="#00C7BE"/>
<path fill-rule="evenodd" clip-rule="evenodd" d="M82.9487 508.227C165.185 486.509 207.13 475.646 208.784 475.637C211.266 475.623 211.919 478.452 214.34 477.893C216.762 477.334 220.17 475.504 224.153 474.144C228.136 472.784 232.642 471.964 234.238 471.706C235.833 471.447 237.29 468.944 237.738 467.5C238.187 466.055 240.612 465.746 241.643 465.508C242.33 465.349 282.85 457.676 363.205 442.488C366.058 442.032 367.751 441.455 368.283 440.759C369.082 439.714 369.182 438.836 368.555 437.86C367.927 436.883 366.018 436.439 365.185 436.632C364.654 436.647 325.844 444.439 248.754 460.007C246.711 460.405 245.367 460.625 244.722 460.666C243.756 460.728 237.537 462.165 237.033 462.441C236.529 462.718 234.827 463.559 234.389 464.449C233.916 465.411 233.581 467.015 232.676 467.951C232.252 468.411 231.42 468.791 229.986 469.122C228.551 469.453 226.219 469.629 223.347 470.654C220.475 471.679 216.171 474.273 214.287 474.366C212.403 474.46 211.459 473.61 211.058 473.299C210.658 472.988 208.235 471.719 205.887 471.983C203.805 472.199 202.585 472.558 200.469 473.131C199.059 473.513 160.25 483.408 84.044 502.815C81.517 503.598 80.1341 504.202 79.8953 504.627C79.5371 505.264 79.0777 505.932 80.3335 507.347C81.1707 508.29 82.0424 508.584 82.9487 508.227Z" fill="#00C7BE" fill-opacity="0.5" stroke="#00C7BE"/>
<path d="M212.918 474.086C213.716 473.223 214.217 472.673 214.421 472.436C214.727 472.081 217.107 465.995 220.883 465.123C224.659 464.252 228.415 464.43 232.756 467.627" stroke="#00C7BE"/>
<path d="M88.0596 501.743L89.7937 496.314C91.2072 494.834 92.9471 493.719 95.0133 492.971C98.1126 491.847 116.015 483.912 119.039 482.927C122.064 481.943 146.015 471.726 148.483 471.156C150.952 470.586 178.108 462.463 185.248 463.002C204.916 462.355 208.355 463.623 212.285 465.306C216.214 466.989 215.839 466.966 217.192 467.878" stroke="#00C7BE"/>
<path d="M357.999 438.108L354.939 434.468C330.475 435.442 314.87 436.372 308.123 437.258C298.003 438.588 274.797 440.301 262.152 445.043C249.507 449.784 235.329 452.805 228.016 464.851" stroke="#00C7BE"/>
<path fill-rule="evenodd" clip-rule="evenodd" d="M690.438 49.6076L691.289 47.9918C691.213 45.825 691.214 44.5127 691.291 44.0547C691.407 43.3679 692.028 40.577 695.384 36.2822C698.739 31.9874 703.439 29.6576 705.761 29.7439C708.083 29.8302 706.403 36.7732 705.147 38.9546C703.891 41.1361 700.43 45.2064 697.487 46.561C695.524 47.464 693.458 47.9409 691.289 47.9918" fill="#00C7BE" fill-opacity="0.25"/>
<path d="M690.438 49.6076L691.289 47.9918M691.289 47.9918C691.213 45.825 691.214 44.5127 691.291 44.0547C691.407 43.3679 692.028 40.577 695.384 36.2822C698.739 31.9874 703.439 29.6576 705.761 29.7439C708.083 29.8302 706.403 36.7732 705.147 38.9546C703.891 41.1361 700.43 45.2064 697.487 46.561C695.524 47.464 693.458 47.9409 691.289 47.9918Z" stroke="#00C7BE"/>
<path fill-rule="evenodd" clip-rule="evenodd" d="M604.154 27.5291C604.936 26.6574 604.53 26.4917 608.409 24.128C612.287 21.7644 615.172 20.3458 618.574 19.5603C621.976 18.7748 625.263 19.0988 626.264 19.2744C627.265 19.4501 634.428 22.3213 634.715 22.5447C635.001 22.7681 642.654 27.261 640.926 27.66C639.197 28.0591 636.195 30.177 634.509 31.4809C632.822 32.7848 625.215 34.53 622.834 35.0796C620.453 35.6293 614.472 35.8614 612.493 35.649C610.514 35.4366 603.092 31.9159 602.023 31.9152C601.31 31.9148 599.31 32.3765 596.024 33.3003C595.37 33.2677 594.977 32.9638 594.845 32.3888C594.645 31.5262 595.565 31.3139 595.565 31.3139C595.565 31.3139 599.856 30.9281 601.564 29.9288C603.273 28.9295 603.371 28.4009 604.154 27.5291Z" fill="#00C7BE" fill-opacity="0.25" stroke="#00C7BE"/>
<path fill-rule="evenodd" clip-rule="evenodd" d="M619.596 54.0493C619.596 54.0493 630.402 50.0256 633.356 46.9381C636.31 43.8506 638.029 41.1307 637.933 38.466C637.869 36.6895 637.634 35.6735 637.229 35.418C634.38 36.398 632.62 37.1734 631.947 37.7443C630.939 38.6005 628.362 40.2735 626.456 42.514C624.551 44.7545 623.459 48.1307 623.459 48.1307C623.459 48.1307 622.765 52.2724 622.88 52.7696" fill="#00C7BE" fill-opacity="0.25"/>
<path d="M619.596 54.0493C619.596 54.0493 630.402 50.0256 633.356 46.9381C636.31 43.8506 638.029 41.1307 637.933 38.466C637.869 36.6895 637.634 35.6735 637.229 35.418C634.38 36.398 632.62 37.1734 631.947 37.7443C630.939 38.6005 628.362 40.2735 626.456 42.514C624.551 44.7545 623.459 48.1307 623.459 48.1307C623.459 48.1307 622.765 52.2724 622.88 52.7696" stroke="#00C7BE"/>
<path fill-rule="evenodd" clip-rule="evenodd" d="M576.343 111.382C570.555 105.674 566.896 103.288 565.364 104.225C563.066 105.63 553.274 105.03 550.154 103.196C547.033 101.361 531.987 96.5925 525.88 92.0149C519.773 87.4373 512.426 84.5192 509.808 81.8877C507.19 79.2562 506.922 79.5966 505.461 79.0099C504.487 78.6187 503.266 77.9743 501.798 77.0767C503.247 77.2187 504.726 77.1153 506.238 76.7663C508.505 76.2429 509.889 73.3431 510.874 71.3193C511.858 69.2954 517.045 68.419 520.396 68.2601C523.746 68.1013 532.891 67.766 541.949 73.2716C551.007 78.7772 560.31 88.671 561.325 89.9015C562.341 91.1321 567.64 97.9491 570.198 104.039C570.4 104.52 570.564 105.231 570.69 106.171" fill="#00C7BE" fill-opacity="0.25"/>
<path d="M576.343 111.382C570.555 105.674 566.896 103.288 565.364 104.225C563.066 105.63 553.274 105.03 550.154 103.196C547.033 101.361 531.987 96.5925 525.88 92.0149C519.773 87.4373 512.426 84.5192 509.808 81.8877C507.19 79.2562 506.922 79.5966 505.461 79.0099C504.487 78.6187 503.266 77.9743 501.798 77.0767C503.247 77.2187 504.726 77.1153 506.238 76.7663C508.505 76.2429 509.889 73.3431 510.874 71.3193C511.858 69.2954 517.045 68.419 520.396 68.2601C523.746 68.1013 532.891 67.766 541.949 73.2716C551.007 78.7772 560.31 88.671 561.325 89.9015C562.341 91.1321 567.64 97.9491 570.198 104.039C570.4 104.52 570.564 105.231 570.69 106.171" stroke="#00C7BE"/>
<path fill-rule="evenodd" clip-rule="evenodd" d="M492.043 220.494C503.054 209.434 509.527 203.194 511.463 201.774C514.366 199.643 517.117 196.586 524.072 195.595C531.027 194.604 534.129 195.641 536.449 196.293C538.769 196.945 540.556 199.62 541.127 200.695C541.698 201.769 542.117 202.171 542.934 202.232C543.48 202.273 543.928 202.334 544.281 202.416L539.916 205.241C534.469 209.424 529.822 212.055 525.976 213.133C520.208 214.752 514.47 216.414 509.52 217.223C504.571 218.032 505.159 216.134 500.862 216.938C497.998 217.474 495.058 218.659 492.043 220.494Z" fill="#00C7BE" fill-opacity="0.25" stroke="#00C7BE"/>
<path d="M543.71 202.61C539.123 202.062 534.833 202.25 530.838 203.172C524.847 204.555 521.265 206.165 520.203 206.832" stroke="#00C7BE"/>
<path fill-rule="evenodd" clip-rule="evenodd" d="M637.342 188.917L630.927 195.292L634.907 187.62C633.354 185.022 633.478 181.553 635.279 177.213C637.982 170.702 645.364 159.697 647.827 157.31C649.468 155.718 652.609 153.35 657.247 150.206C658.257 154.74 658.789 158.146 658.843 160.424C658.924 163.842 658.826 167.593 657.093 170.745C655.36 173.898 651.978 181.082 648.773 183.717C645.569 186.352 644.146 187.924 641.439 188.549C639.635 188.965 638.269 189.088 637.342 188.917Z" fill="#00C7BE" fill-opacity="0.25" stroke="#00C7BE"/>
<path fill-rule="evenodd" clip-rule="evenodd" d="M422.603 262.813C415.588 272.143 411.842 277.537 411.364 278.996C410.979 280.173 408.346 285.655 405.243 289.837C402.583 293.421 396.849 301.25 394.197 303.812C391.545 306.374 386.033 310.355 382.323 311.829C378.613 313.303 375.962 315.141 375.148 317.165C374.606 318.514 372.877 321.287 369.96 325.484L372.268 312.701C375.546 298.873 378.062 289.526 379.816 284.658C382.446 277.357 392.48 268.398 396.116 265.477C399.753 262.556 408.311 261.188 410.626 261.577C412.94 261.966 414.751 263.268 416.285 264.272C417.819 265.275 417.77 265.215 419.093 264.496C419.975 264.017 421.145 263.456 422.603 262.813Z" fill="#00C7BE" fill-opacity="0.25" stroke="#00C7BE"/>
<path d="M417.525 264.539C398.171 282.452 388.342 292.209 388.037 293.809" stroke="#00C7BE"/>
<path fill-rule="evenodd" clip-rule="evenodd" d="M589.539 335.988C588.736 337.051 588.07 337.933 587.542 338.632C587.014 339.332 586.486 340.031 585.957 340.731C585.688 341.101 585.769 341.452 586.2 341.782C586.631 342.112 587.113 342.001 587.644 341.449L590.767 337.214C592.893 339.608 595.759 339.861 599.365 337.974C604.773 335.144 615.52 329.338 619.015 324.377C622.509 319.415 629.857 308.595 632.336 301.443C634.815 294.292 637.334 278.171 636.336 271.221C635.339 264.272 634.144 259.467 633.234 257.782C632.323 256.097 631.698 253.39 631.961 252.268C632.223 251.145 632.847 249.396 634.085 247.361C634.91 246.004 635.979 243.76 637.29 240.628L633.234 245.218C630.438 248.988 628.402 251.826 627.126 253.733C625.213 256.592 619.915 260.583 615.844 262.891C611.774 265.199 604.87 272.883 602.989 276.602C601.109 280.321 593.461 293.926 592.614 299.495C591.767 305.064 587.173 318.429 587.397 322.616C587.621 326.804 587.904 328.904 588.102 329.763C588.234 330.335 588.713 332.41 589.539 335.988Z" fill="#00C7BE" fill-opacity="0.25" stroke="#00C7BE"/>
<path d="M590.556 336.23C589.052 337.603 587.884 339.39 587.054 341.593L586.158 341.252C596.313 325.767 601.39 318.025 601.39 318.025" stroke="#00C7BE"/>
<path fill-rule="evenodd" clip-rule="evenodd" d="M480.274 372.873C480.274 372.873 459.205 362.729 450.555 363.694C441.905 364.66 437.65 365.833 434.003 367.516C430.357 369.198 427.924 375.158 428.08 375.836C428.237 376.515 428.232 377.9 426.798 378.231C425.842 378.451 425.109 378.813 424.596 379.315L430.634 379.121C433.221 379.427 437.155 379.614 442.437 379.68C450.359 379.779 458.041 378.994 460.117 378.188C462.192 377.382 470.768 373.981 471.98 372.859C473.192 371.737 476.628 372.599 477.207 372.742C477.785 372.885 480.274 372.873 480.274 372.873Z" fill="#00C7BE" fill-opacity="0.25" stroke="#00C7BE"/>
<path fill-rule="evenodd" clip-rule="evenodd" d="M142.959 389.453C144.927 377.97 146.806 370.863 148.597 368.131C151.282 364.034 155.516 360.603 159.244 359.742C162.972 358.882 164.789 360.463 165.841 361.326C166.892 362.19 163.445 364.015 162.605 366.403C161.765 368.791 160.028 371.445 159.18 372.733C158.333 374.02 154.598 380.448 151.807 382.036C149.016 383.624 147.915 382.822 146.302 384.812C145.226 386.139 144.112 387.686 142.959 389.453Z" fill="#00C7BE" fill-opacity="0.25" stroke="#00C7BE"/>
<path fill-rule="evenodd" clip-rule="evenodd" d="M69.4282 305.259C71.0057 310.208 72.88 313.51 75.0511 315.167C78.3076 317.653 83.7545 319.812 85.9793 320.137C88.2041 320.463 92.3546 321.863 93.9622 323.342C95.5698 324.821 92.2604 317.817 91.965 314.691C91.5676 310.484 81.3213 304.109 77.8089 304.122C75.4673 304.131 72.6737 304.51 69.4282 305.259Z" fill="#00C7BE" fill-opacity="0.25" stroke="#00C7BE"/>
<path fill-rule="evenodd" clip-rule="evenodd" d="M204.326 294.992C204.326 294.992 203.455 299.805 205.857 301.627C208.26 303.449 212.279 306.052 215.764 305.247C219.25 304.443 223.868 305.078 225.518 306.107C227.167 307.137 223.147 301.063 221.687 300.195C220.227 299.327 214.892 294.756 211.764 294.587C208.636 294.418 204.326 294.992 204.326 294.992Z" fill="#00C7BE" fill-opacity="0.25" stroke="#00C7BE"/>
<path fill-rule="evenodd" clip-rule="evenodd" d="M303.967 249.753L299.331 249.189C294.773 247.007 290.995 246.042 287.998 246.296C283.502 246.678 276.92 246.474 270.466 251.32C264.013 256.166 262.63 260.982 262.446 263.513C262.263 266.044 279.118 265.759 286.063 261.656C293.008 257.554 298.379 252.357 299.738 250.95C300.644 250.012 302.054 249.613 303.967 249.753Z" fill="#00C7BE" fill-opacity="0.25" stroke="#00C7BE"/>
<path fill-rule="evenodd" clip-rule="evenodd" d="M293.458 277.571C280.934 273.396 273.519 270.533 271.212 268.983C267.752 266.659 269.727 275.214 271.038 276.282C274.495 279.101 278.378 281.285 285.086 280.16C289.557 279.411 292.348 278.548 293.458 277.571Z" fill="#00C7BE" fill-opacity="0.25" stroke="#00C7BE"/>
<path fill-rule="evenodd" clip-rule="evenodd" d="M341.78 409.821L337.827 405.972C330.053 394.045 323.061 387.286 316.85 385.694C307.535 383.307 307.063 381.987 301.617 381.247C296.171 380.507 303.487 394.486 305.035 396.051C310.757 401.837 316.94 406.297 323.988 407.87C331.036 409.443 336.512 408.8 338.381 408.368C339.627 408.081 340.76 408.565 341.78 409.821Z" fill="#00C7BE" fill-opacity="0.25" stroke="#00C7BE"/>
</svg>
