<svg width="720" height="358" viewBox="0 0 720 358" fill="none" xmlns="http://www.w3.org/2000/svg">
<path fill-rule="evenodd" clip-rule="evenodd" d="M1.34976 283.828C1.34976 283.828 2.71532 284.936 3.47153 286.332C4.0462 287.393 4.02098 288.787 4.02098 288.787C4.02098 288.787 4.21089 294.649 5.45033 298.657C6.68977 302.666 8.92956 307.254 10.3689 309.363C11.3284 310.769 13.3094 313.077 16.3118 316.289C18.9199 313.71 20.2998 311.277 20.4516 308.99C20.6792 305.56 20.4516 304.03 19.4505 300.73C18.4494 297.43 15.0767 293.656 13.7737 292.39C12.247 290.906 9.81149 288.887 6.46723 286.332C3.05558 284.663 1.34976 283.828 1.34976 283.828Z" fill="white" fill-opacity="0.25" stroke="white"/>
<path fill-rule="evenodd" clip-rule="evenodd" d="M403.547 116.182C406.408 117.114 407.854 120.133 408.378 120.358C408.902 120.583 409.446 120.875 409.852 120.358C410.259 119.84 410.259 119.342 409.852 118.797C409.446 118.252 405.702 115.005 405.166 113.728C404.631 112.451 404.624 107.292 403.547 100.737C402.47 94.1816 393.943 79.6835 392.346 76.8211C390.748 73.9587 374.651 53.0619 362.002 48.0545C349.353 43.0472 348.618 40.6606 345.983 38.5194C343.348 36.3783 339.421 32.1258 338.685 31.2437C337.949 30.3615 337.394 30.0222 336.771 30.1919C336.148 30.3615 336.053 31.9622 336.771 32.468C337.489 32.9739 341.237 37.932 341.792 39.5618C342.347 41.1916 342.985 49.2637 342.666 51.6364C342.347 54.009 343.792 63.3646 344.164 65.9991C344.537 68.6336 347.175 82.5358 355.566 92.9555C363.958 103.375 370.576 108.419 374.329 110.438C381.823 114.469 383.202 114.859 391.481 114.859C399.76 114.859 400.685 115.251 403.547 116.182Z" fill="white" fill-opacity="0.25" stroke="white"/>
<path d="M409.438 119.864L383.918 92.9555" stroke="white"/>
<path d="M408.752 120.157C409.304 120.157 409.752 119.71 409.752 119.157C409.752 118.605 409.304 118.157 408.752 118.157C408.2 118.157 407.752 118.605 407.752 119.157C407.752 119.71 408.2 120.157 408.752 120.157Z" fill="white" stroke="white"/>
<path fill-rule="evenodd" clip-rule="evenodd" d="M3.81946 356.653C88.8331 353.991 132.147 352.841 133.761 353.204C136.182 353.749 136.182 356.653 138.667 356.653C141.152 356.653 144.884 355.636 149.071 355.207C153.258 354.778 157.834 354.993 159.446 355.1C161.059 355.207 163.041 353.096 163.803 351.789C164.566 350.483 166.998 350.727 168.056 350.727C168.761 350.727 209.969 352.365 291.681 355.643C294.563 355.84 296.343 355.659 297.018 355.1C298.031 354.262 298.326 353.429 297.935 352.336C297.543 351.244 295.782 350.382 294.927 350.382C294.407 350.277 254.838 349.139 176.222 346.967C174.142 346.895 172.783 346.807 172.146 346.702C171.19 346.545 164.808 346.547 164.254 346.702C163.701 346.858 161.854 347.294 161.227 348.063C160.549 348.894 159.862 350.382 158.769 351.09C158.253 351.443 157.357 351.626 155.885 351.626C154.412 351.626 152.1 351.273 149.071 351.626C146.043 351.979 141.265 353.537 139.408 353.204C137.551 352.872 136.823 351.831 136.503 351.439C136.183 351.046 134.107 349.264 131.76 348.993C129.683 348.734 128.413 348.81 126.223 348.892C124.763 348.947 84.723 349.858 6.10405 351.626C3.46574 351.82 1.98243 352.097 1.65413 352.458C1.16168 352.998 0.563863 353.546 1.4692 355.207C2.07276 356.314 2.85617 356.796 3.81946 356.653Z" fill="white" fill-opacity="0.5" stroke="white"/>
<path d="M138.137 352.623C139.109 351.962 139.721 351.539 139.973 351.354C140.351 351.077 144.039 345.682 147.914 345.682C151.789 345.682 155.41 346.701 158.92 350.792" stroke="white"/>
<path d="M10.2578 351.485L13.1687 346.585C14.8791 345.461 16.8251 344.766 19.0068 344.501C22.2793 344.104 41.5075 340.399 44.6762 340.12C47.8448 339.841 73.4799 335.274 76.0135 335.274C78.547 335.274 106.835 333.468 113.671 335.599C132.98 339.393 136.045 341.403 139.496 343.926C142.946 346.45 142.585 346.343 143.698 347.536" stroke="white"/>
<path d="M287.594 350.203L285.431 345.969C261.375 341.414 245.961 338.81 239.187 338.156C229.027 337.176 206.031 333.624 192.643 335.4C179.256 337.176 164.762 336.929 154.926 347.022" stroke="white"/>
<path fill-rule="evenodd" clip-rule="evenodd" d="M698.906 46.4431L700.098 45.0601C700.512 42.9317 700.808 41.6532 700.986 41.2244C701.254 40.5813 702.487 38.0017 706.722 34.5718C710.958 31.1419 716.061 29.929 718.305 30.5354C720.548 31.1419 717.349 37.5289 715.634 39.3719C713.92 41.2149 709.632 44.4025 706.459 45.0601C704.344 45.4985 702.223 45.4985 700.098 45.0601" fill="white" fill-opacity="0.25"/>
<path d="M698.906 46.4431L700.098 45.0601M700.098 45.0601C700.512 42.9317 700.808 41.6532 700.986 41.2244C701.254 40.5813 702.487 38.0017 706.722 34.5718C710.958 31.1419 716.061 29.929 718.305 30.5354C720.548 31.1419 717.349 37.5289 715.634 39.3719C713.92 41.2149 709.632 44.4025 706.459 45.0601C704.344 45.4985 702.223 45.4985 700.098 45.0601Z" stroke="white"/>
<path fill-rule="evenodd" clip-rule="evenodd" d="M619.799 5.52068C620.757 4.84723 620.4 4.59459 624.711 3.16396C629.021 1.73332 632.151 1 635.643 1C639.135 1 642.264 2.05495 643.2 2.45134C644.136 2.84773 650.469 7.25657 650.698 7.53873C650.927 7.82089 657.373 13.9201 655.599 13.9201C653.826 13.9201 650.424 15.3084 648.487 16.1996C646.551 17.0908 638.746 17.0799 636.303 17.0799C633.859 17.0799 627.979 15.9606 626.098 15.3084C624.218 14.6562 617.779 9.55634 616.737 9.31512C616.042 9.1543 613.99 9.1543 610.58 9.31512C609.95 9.13637 609.636 8.7519 609.636 8.16171C609.636 7.27641 610.58 7.27641 610.58 7.27641C610.58 7.27641 614.847 7.86576 616.737 7.27641C618.626 6.68706 618.841 6.19413 619.799 5.52068Z" fill="white" fill-opacity="0.25" stroke="white"/>
<path fill-rule="evenodd" clip-rule="evenodd" d="M628.88 34.8348C628.88 34.8348 640.314 33.3451 643.887 31.0012C647.46 28.6574 649.747 26.3939 650.252 23.7758C650.59 22.0305 650.59 20.9877 650.252 20.6477C647.256 20.9617 645.366 21.3213 644.583 21.7262C643.408 22.3337 640.52 23.3842 638.16 25.1386C635.799 26.893 633.976 29.937 633.976 29.937C633.976 29.937 632.368 33.8164 632.368 34.3267" fill="white" fill-opacity="0.25"/>
<path d="M628.88 34.8348C628.88 34.8348 640.314 33.3451 643.887 31.0012C647.46 28.6574 649.747 26.3939 650.252 23.7758C650.59 22.0305 650.59 20.9877 650.252 20.6477C647.256 20.9617 645.366 21.3213 644.583 21.7262C643.408 22.3337 640.52 23.3842 638.16 25.1386C635.799 26.893 633.976 29.937 633.976 29.937C633.976 29.937 632.368 33.8164 632.368 34.3267" stroke="white"/>
<path fill-rule="evenodd" clip-rule="evenodd" d="M573.839 80.968C569.484 74.1043 566.454 70.9566 564.751 71.5249C562.196 72.3774 552.79 69.5897 550.162 67.1005C547.534 64.6113 533.946 56.5799 529.026 50.746C524.105 44.912 517.603 40.4159 515.644 37.2629C513.685 34.1099 513.347 34.3813 512.056 33.481C511.195 32.8808 510.15 31.9783 508.922 30.7735C510.301 31.2376 511.766 31.4696 513.317 31.4696C515.644 31.4696 517.645 28.9557 519.06 27.2051C520.474 25.4546 525.726 25.7675 529.026 26.3664C532.326 26.9653 541.312 28.6957 548.899 36.0978C556.486 43.4998 563.325 55.2328 564.038 56.6602C564.751 58.0877 568.38 65.9219 569.503 72.4309C569.592 72.9455 569.592 73.6751 569.503 74.6198" fill="white" fill-opacity="0.25"/>
<path d="M573.839 80.968C569.484 74.1043 566.454 70.9566 564.751 71.5249C562.196 72.3774 552.79 69.5897 550.162 67.1005C547.534 64.6113 533.946 56.5799 529.026 50.746C524.105 44.912 517.603 40.4159 515.644 37.2629C513.685 34.1099 513.347 34.3813 512.056 33.481C511.195 32.8808 510.15 31.9783 508.922 30.7735C510.301 31.2376 511.766 31.4696 513.317 31.4696C515.644 31.4696 517.645 28.9557 519.06 27.2051C520.474 25.4546 525.726 25.7675 529.026 26.3664C532.326 26.9653 541.312 28.6957 548.899 36.0978C556.486 43.4998 563.325 55.2328 564.038 56.6602C564.751 58.0877 568.38 65.9219 569.503 72.4309C569.592 72.9455 569.592 73.6751 569.503 74.6198" stroke="white"/>
<path fill-rule="evenodd" clip-rule="evenodd" d="M467.154 168.32C480.371 160.021 488.082 155.397 490.288 154.449C493.596 153.025 496.964 150.666 503.964 151.265C510.963 151.864 513.753 153.572 515.867 154.729C517.98 155.886 519.12 158.895 519.435 160.07C519.749 161.246 520.067 161.731 520.85 161.975C521.372 162.137 521.795 162.298 522.12 162.457L517.232 164.227C510.983 167.078 505.864 168.596 501.874 168.782C495.889 169.061 489.924 169.39 484.92 169.065C479.915 168.739 480.915 167.023 476.548 166.84C473.636 166.718 470.505 167.211 467.154 168.32Z" fill="white" fill-opacity="0.25" stroke="white"/>
<path d="M521.52 162.517C517.174 160.952 512.951 160.17 508.852 160.17C502.703 160.17 498.85 160.932 497.666 161.343" stroke="white"/>
<path fill-rule="evenodd" clip-rule="evenodd" d="M615.833 170.238L608.148 175.007L613.752 168.426C612.823 165.546 613.724 162.194 616.456 158.37C620.554 152.634 630.223 143.571 633.159 141.799C635.116 140.618 638.709 139.017 643.936 136.997C643.9 141.641 643.653 145.08 643.192 147.312C642.502 150.66 641.563 154.293 639.165 156.975C636.767 159.657 631.856 165.896 628.141 167.743C624.426 169.589 622.686 170.801 619.908 170.801C618.056 170.801 616.697 170.613 615.833 170.238Z" fill="white" fill-opacity="0.25" stroke="white"/>
<path fill-rule="evenodd" clip-rule="evenodd" d="M389.975 193.934C381.041 201.447 376.177 205.86 375.384 207.174C374.743 208.235 370.945 212.983 366.98 216.36C363.582 219.254 356.234 225.593 353.074 227.492C349.913 229.392 343.647 232.032 339.701 232.633C335.754 233.235 332.758 234.429 331.51 236.218C330.678 237.41 328.369 239.723 324.583 243.157L329.707 231.22C336.012 218.485 340.566 209.943 343.37 205.595C347.576 199.072 359.367 192.6 363.568 190.572C367.768 188.544 376.415 189.136 378.582 190.035C380.75 190.935 382.221 192.611 383.49 193.934C384.759 195.257 384.725 195.187 386.176 194.785C387.143 194.516 388.409 194.233 389.975 193.934Z" fill="white" fill-opacity="0.25" stroke="white"/>
<path d="M384.639 194.474C361.751 207.574 349.979 214.87 349.321 216.36" stroke="white"/>
<path fill-rule="evenodd" clip-rule="evenodd" d="M536.171 302.786C535.15 303.641 534.303 304.351 533.631 304.913C532.959 305.476 532.287 306.039 531.614 306.601C531.269 306.902 531.269 307.262 531.614 307.681C531.96 308.1 532.454 308.1 533.096 307.681L537.092 304.257C538.625 307.068 541.361 307.959 545.299 306.932C551.205 305.39 562.982 302.152 567.503 298.103C572.025 294.054 581.618 285.165 585.642 278.754C589.666 272.343 595.747 257.202 596.338 250.207C596.93 243.211 596.846 238.26 596.338 236.414C595.83 234.567 595.83 231.789 596.338 230.754C596.846 229.719 597.848 228.156 599.512 226.451C600.622 225.315 602.167 223.368 604.149 220.612L599.165 224.172C595.592 227.216 592.97 229.524 591.299 231.094C588.791 233.45 582.731 236.147 578.246 237.48C573.76 238.813 565.305 244.747 562.636 247.948C559.967 251.149 549.454 262.685 547.376 267.921C545.299 273.156 537.816 285.145 537.092 289.275C536.368 293.406 536.171 295.516 536.171 296.397C536.171 296.984 536.171 299.114 536.171 302.786Z" fill="white" fill-opacity="0.25" stroke="white"/>
<path d="M537.108 303.251C535.333 304.25 533.793 305.729 532.489 307.689L531.693 307.154C545.071 294.351 551.759 287.95 551.759 287.95" stroke="white"/>
<path fill-rule="evenodd" clip-rule="evenodd" d="M421.409 314.146C421.409 314.146 403.162 299.523 394.517 298.518C385.871 297.513 381.461 297.699 377.53 298.518C373.598 299.337 369.887 304.597 369.887 305.293C369.887 305.989 369.57 307.337 368.099 307.337C367.118 307.337 366.322 307.524 365.71 307.899L371.636 309.067C374.088 309.948 377.88 311.015 383.011 312.267C390.708 314.146 398.369 315.109 400.573 314.791C402.776 314.473 411.898 313.088 413.331 312.267C414.765 311.447 417.919 313.06 418.45 313.329C418.982 313.598 421.409 314.146 421.409 314.146Z" fill="white" fill-opacity="0.25" stroke="white"/>
<path fill-rule="evenodd" clip-rule="evenodd" d="M89.0098 254.423C93.5106 243.677 96.9405 237.174 99.2994 234.915C102.838 231.527 107.735 229.136 111.561 229.136C115.387 229.136 116.802 231.086 117.632 232.164C118.462 233.242 114.693 234.245 113.337 236.383C111.982 238.521 109.692 240.715 108.577 241.779C107.462 242.844 102.376 248.266 99.2994 249.186C96.223 250.105 95.3306 249.076 93.311 250.652C91.9647 251.703 90.5309 252.96 89.0098 254.423Z" fill="white" fill-opacity="0.25" stroke="white"/>
<path fill-rule="evenodd" clip-rule="evenodd" d="M36.3032 155.846C36.7272 161.022 37.8105 164.662 39.5531 166.765C42.167 169.919 46.9887 173.248 49.0833 174.066C51.1778 174.883 54.9069 177.182 56.1407 178.984C57.3745 180.786 55.7252 173.218 56.1407 170.105C56.6998 165.917 48.1503 157.4 44.7249 156.623C42.4413 156.105 39.6341 155.846 36.3032 155.846Z" fill="white" fill-opacity="0.25" stroke="white"/>
<path fill-rule="evenodd" clip-rule="evenodd" d="M170.053 176.187C170.053 176.187 168.122 180.68 170.053 182.996C171.984 185.312 175.314 188.752 178.891 188.752C182.468 188.752 186.826 190.41 188.201 191.784C189.577 193.159 187.026 186.336 185.799 185.162C184.572 183.988 180.402 178.334 177.392 177.466C174.382 176.598 170.053 176.187 170.053 176.187Z" fill="white" fill-opacity="0.25" stroke="white"/>
<path fill-rule="evenodd" clip-rule="evenodd" d="M277.317 154.521L272.927 152.929C268.976 149.777 265.512 147.988 262.535 147.561C258.068 146.921 251.701 145.242 244.322 148.512C236.944 151.782 234.513 156.164 233.765 158.589C233.017 161.013 249.505 164.527 257.194 162.092C264.884 159.657 271.287 155.802 272.927 154.737C274.021 154.027 275.484 153.955 277.317 154.521Z" fill="white" fill-opacity="0.25" stroke="white"/>
<path fill-rule="evenodd" clip-rule="evenodd" d="M260.82 179.263C249.556 172.377 242.975 167.92 241.075 165.891C238.227 162.848 238.227 171.627 239.264 172.964C241.999 176.487 245.291 179.49 252.079 179.902C256.605 180.178 259.519 179.965 260.82 179.263Z" fill="white" fill-opacity="0.25" stroke="white"/>
<path fill-rule="evenodd" clip-rule="evenodd" d="M278.154 318.993L275.168 314.354C270.276 300.984 264.983 292.825 259.29 289.877C250.75 285.455 250.588 284.063 245.447 282.117C240.307 280.171 244.292 295.437 245.447 297.31C249.721 304.235 254.742 309.972 261.256 313.09C267.769 316.208 273.25 316.813 275.168 316.813C276.447 316.813 277.442 317.54 278.154 318.993Z" fill="white" fill-opacity="0.25" stroke="white"/>
</svg>
